M48
; DRILL file KiCad 10.0.6-10.0.6~ubuntu24.04.1 date 2026-09-26T00:42:13
; FORMAT={-:-/ absolute / metric / decimal}
; #@! TF.CreationDate,2026-09-26T00:42:13+05:30
; #@! TF.GenerationSoftware,Kicad,Pcbnew,10.0.6-10.0.6~ubuntu24.04.1
; #@! TF.FileFunction,Plated,1,2,PTH
FMAT,2
METRIC
; #@! TA.AperFunction,Plated,PTH,ViaDrill
T1C0.300
; #@! TA.AperFunction,Plated,PTH,ComponentDrill
T2C0.300
; #@! TA.AperFunction,Plated,PTH,ComponentDrill
T3C0.700
; #@! TA.AperFunction,Plated,PTH,ComponentDrill
T4C0.950
; #@! TA.AperFunction,Plated,PTH,ComponentDrill
T5C1.000
%
G90
G05
T1
X105.5Y-112.5
X106.695Y-142.875
X109.5Y-107.5
X109.5Y-125.5
X110.424Y-113.576
X111.5Y-112.5
X113.781Y-130.2
X114.91Y-113.587
X115.338Y-116.46
X116.5Y-112.0
X116.708Y-130.256
X116.804Y-118.043
X117.5Y-106.5
X117.743Y-142.875
X117.85Y-122.5
X118.0Y-111.4
X118.0Y-127.0
X119.0Y-123.5
X119.5Y-120.0
X119.5Y-122.0
X120.771Y-112.3
X120.85Y-114.5
X120.85Y-116.0
X120.85Y-118.5
X121.0Y-121.4
X122.5Y-142.0
X122.793Y-138.166
X122.932Y-133.895
X123.0Y-131.5
X123.425Y-117.075
X124.349Y-119.149
X126.0Y-123.5
X126.0Y-125.5
X126.0Y-136.0
X127.0Y-142.0
X127.425Y-134.264
X127.639Y-136.0
X128.0Y-126.4
X128.5Y-122.25
X129.231Y-130.507
X129.49Y-133.192
X129.5Y-121.4
X132.36Y-120.82
X132.439Y-122.963
X132.5Y-136.0
X133.225Y-107.449
X133.275Y-110.1
X133.331Y-112.967
X135.248Y-134.58
X136.958Y-114.708
X137.069Y-142.072
X137.14Y-138.146
X138.025Y-113.5
X138.75Y-117.289
X139.725Y-118.275
X140.0Y-129.5
X140.0Y-131.5
X140.655Y-119.234
X140.9Y-135.225
X142.0Y-122.0
X142.282Y-133.083
X142.775Y-112.5
X143.0Y-135.225
X143.431Y-122.931
X143.55Y-131.691
X144.0Y-115.275
X144.948Y-106.259
X145.0Y-104.5
X145.0Y-108.0
X145.0Y-122.775
X147.622Y-115.283
X148.579Y-125.297
X148.644Y-111.999
X148.713Y-114.376
X149.966Y-131.002
X150.481Y-125.3
X151.0Y-108.5
X151.323Y-129.811
X151.5Y-97.5
X151.5Y-99.0
X153.347Y-125.3
X153.5Y-110.5
X153.8Y-131.05
X154.359Y-113.636
X154.359Y-115.779
X154.662Y-129.444
X154.739Y-119.693
X154.739Y-121.439
X156.0Y-113.0
X156.217Y-129.329
T2
X142.5Y-88.2
X142.5Y-92.1
T3
X154.095Y-138.0
X155.995Y-138.0
T4
X156.2Y-131.1
X156.2Y-133.6
T5
X104.5Y-119.69
X104.5Y-122.23
X104.5Y-124.77
X104.5Y-127.31
X112.26Y-109.0
X114.8Y-109.0
X117.34Y-109.0
X119.88Y-109.0
X122.42Y-109.0
X124.96Y-109.0
X127.5Y-109.0
X130.04Y-109.0
X158.0Y-104.735
X158.0Y-107.275
M30
