%TF.GenerationSoftware,KiCad,Pcbnew,10.0.6-10.0.6~ubuntu24.04.1*%
%TF.CreationDate,2026-09-26T00:42:25+05:30*%
%TF.ProjectId,Attendance Management System,41747465-6e64-4616-9e63-65204d616e61,rev?*%
%TF.SameCoordinates,Original*%
%TF.FileFunction,Copper,L2,Bot*%
%TF.FilePolarity,Positive*%
%FSLAX46Y46*%
G04 Gerber Fmt 4.6, Leading zero omitted, Abs format (unit mm)*
G04 Created by KiCad (PCBNEW 10.0.6-10.0.6~ubuntu24.04.1) date 2026-09-26 00:42:25*
%MOMM*%
%LPD*%
G01*
G04 APERTURE LIST*
G04 Aperture macros list*
%AMRoundRect*
0 Rectangle with rounded corners*
0 $1 Rounding radius*
0 $2 $3 $4 $5 $6 $7 $8 $9 X,Y pos of 4 corners*
0 Add a 4 corners polygon primitive as box body*
4,1,4,$2,$3,$4,$5,$6,$7,$8,$9,$2,$3,0*
0 Add four circle primitives for the rounded corners*
1,1,$1+$1,$2,$3*
1,1,$1+$1,$4,$5*
1,1,$1+$1,$6,$7*
1,1,$1+$1,$8,$9*
0 Add four rect primitives between the rounded corners*
20,1,$1+$1,$2,$3,$4,$5,0*
20,1,$1+$1,$4,$5,$6,$7,0*
20,1,$1+$1,$6,$7,$8,$9,0*
20,1,$1+$1,$8,$9,$2,$3,0*%
G04 Aperture macros list end*
%TA.AperFunction,EtchedComponent*%
%ADD10C,0.800000*%
%TD*%
%TA.AperFunction,ComponentPad*%
%ADD11C,1.000000*%
%TD*%
%TA.AperFunction,ComponentPad*%
%ADD12C,1.400000*%
%TD*%
%TA.AperFunction,ComponentPad*%
%ADD13RoundRect,0.250000X0.725000X-0.600000X0.725000X0.600000X-0.725000X0.600000X-0.725000X-0.600000X0*%
%TD*%
%TA.AperFunction,ComponentPad*%
%ADD14O,1.950000X1.700000*%
%TD*%
%TA.AperFunction,ComponentPad*%
%ADD15R,1.700000X1.700000*%
%TD*%
%TA.AperFunction,ComponentPad*%
%ADD16C,1.700000*%
%TD*%
%TA.AperFunction,ViaPad*%
%ADD17C,0.800000*%
%TD*%
%TA.AperFunction,Conductor*%
%ADD18C,1.000000*%
%TD*%
%TA.AperFunction,Conductor*%
%ADD19C,0.800000*%
%TD*%
%TA.AperFunction,Conductor*%
%ADD20C,0.500000*%
%TD*%
%TA.AperFunction,Conductor*%
%ADD21C,0.200000*%
%TD*%
%TA.AperFunction,Conductor*%
%ADD22C,0.300000*%
%TD*%
G04 APERTURE END LIST*
%TO.C,AE3*%
D10*
X142500000Y-88200000D02*
X142500000Y-92100000D01*
%TD*%
D11*
%TO.P,AE3,1*%
%TO.N,N/C*%
X142500000Y-92100000D03*
X142500000Y-88200000D03*
%TD*%
D12*
%TO.P,TH1,1*%
%TO.N,Net-(U2-THERM)*%
X154095000Y-138000000D03*
%TO.P,TH1,2*%
%TO.N,GND*%
X155995000Y-138000000D03*
%TD*%
D13*
%TO.P,J2,1,Pin_1_1*%
%TO.N,BAT+*%
X156200000Y-133600000D03*
D14*
%TO.P,J2,2,Pin_2_2*%
%TO.N,GND*%
X156200000Y-131100000D03*
%TD*%
D15*
%TO.P,J7,1,Pin_1_1*%
%TO.N,/MCU/NFC_SCK*%
X130040000Y-109000000D03*
D16*
%TO.P,J7,2,Pin_2_2*%
%TO.N,/MCU/NFC_MISO*%
X127500000Y-109000000D03*
%TO.P,J7,3,Pin_3_3*%
%TO.N,/MCU/NFC_MOSI*%
X124960000Y-109000000D03*
%TO.P,J7,4,Pin_4_4*%
%TO.N,/MCU/PN532_NSS*%
X122420000Y-109000000D03*
%TO.P,J7,5,Pin_5_5*%
%TO.N,BAT+*%
X119880000Y-109000000D03*
%TO.P,J7,6,Pin_6_6*%
%TO.N,GND*%
X117340000Y-109000000D03*
%TO.P,J7,7,Pin_7_7*%
%TO.N,/MCU/PN532_IRQ*%
X114800000Y-109000000D03*
%TO.P,J7,8,Pin_8_8*%
%TO.N,unconnected-(J7-Pin_8-Pad8)*%
X112260000Y-109000000D03*
%TD*%
D15*
%TO.P,J3,1,Pin_1_1*%
%TO.N,+3V3*%
X104500000Y-127310000D03*
D16*
%TO.P,J3,2,Pin_2_2*%
%TO.N,/MCU/SWDIO*%
X104500000Y-124770000D03*
%TO.P,J3,3,Pin_3_3*%
%TO.N,/MCU/SWCLK*%
X104500000Y-122230000D03*
%TO.P,J3,4,Pin_4_4*%
%TO.N,GND*%
X104500000Y-119690000D03*
%TD*%
D15*
%TO.P,J4,1,Pin_1_1*%
%TO.N,BAT+*%
X158000000Y-107275000D03*
D16*
%TO.P,J4,2,Pin_2_2*%
%TO.N,Net-(D4-A)*%
X158000000Y-104735000D03*
%TD*%
D17*
%TO.N,GND*%
X127000000Y-142000000D03*
X126000000Y-136000000D03*
X126000000Y-125500000D03*
X124348509Y-119148940D03*
X126000000Y-123500000D03*
X111500000Y-112500000D03*
X117500000Y-106500000D03*
X105500000Y-112500000D03*
X119500000Y-120000000D03*
X116803896Y-118042757D03*
X115338084Y-116460172D03*
X113781117Y-130200000D03*
X116708116Y-130256431D03*
X106694565Y-142875000D03*
X117742705Y-142875000D03*
X137068676Y-142072060D03*
X122500000Y-142000000D03*
X137140432Y-138146429D03*
X122793177Y-138166273D03*
X122932462Y-133894554D03*
X123000000Y-131500000D03*
X135248278Y-134580392D03*
X156216908Y-129328659D03*
X154662456Y-129444416D03*
X149965903Y-131001953D03*
X153799775Y-131050000D03*
X151323237Y-129811310D03*
X142281988Y-133082509D03*
X143550000Y-131690669D03*
X154738903Y-121439486D03*
X154359490Y-113635722D03*
X154359490Y-115778881D03*
X154738903Y-119692658D03*
X153347222Y-125300000D03*
X150480858Y-125300000D03*
X148579136Y-125296643D03*
X148643703Y-111998900D03*
X148712606Y-114376053D03*
X147621642Y-115283275D03*
X132439241Y-122962816D03*
X132359864Y-120819658D03*
X140654681Y-119233721D03*
X138749651Y-117289003D03*
X139725000Y-118275000D03*
X136958450Y-114707805D03*
X133330570Y-112966890D03*
X133275000Y-110099913D03*
X133225000Y-107449062D03*
X151000000Y-108500000D03*
X145000000Y-108000000D03*
X144947802Y-106258642D03*
X145000000Y-104500000D03*
X151500000Y-99000000D03*
X151500000Y-97500000D03*
%TO.N,/MCU/VIB_EN*%
X156000000Y-113000000D03*
X153500000Y-110500000D03*
%TO.N,+5V*%
X143000000Y-135225000D03*
X140900000Y-135225000D03*
%TO.N,BAT+*%
X142775000Y-112500000D03*
%TO.N,+5V*%
X132500000Y-136000000D03*
X127425000Y-134263631D03*
X127638808Y-136000000D03*
%TO.N,+3V3*%
X143431250Y-122931250D03*
X145000000Y-122775000D03*
X118000000Y-127000000D03*
X109500000Y-125500000D03*
X110423619Y-113576381D03*
X109500000Y-107500000D03*
%TO.N,/MCU/VIB_EN*%
X128000000Y-126400000D03*
X119000000Y-123500000D03*
%TO.N,/RFID/DC3*%
X138025000Y-113500000D03*
X144000000Y-115275000D03*
%TO.N,+5V*%
X129490205Y-133191832D03*
%TO.N,GND*%
X129231277Y-130506678D03*
%TO.N,/MCU/PN532_NSS*%
X120771320Y-112300000D03*
%TO.N,/MCU/NFC_MISO*%
X142000000Y-122000000D03*
X118000000Y-111400000D03*
%TO.N,/MCU/NFC_MOSI*%
X116500000Y-112000000D03*
X123425000Y-117075000D03*
%TO.N,/MCU/NFC_IRQ*%
X121000000Y-121400000D03*
X129500000Y-121400000D03*
%TO.N,/MCU/BAT_SENSE*%
X117850000Y-122500000D03*
%TO.N,/MCU/NFC_NSS*%
X119500000Y-122000000D03*
X128500000Y-122250000D03*
%TO.N,/MCU/BAT_SENSE*%
X114910330Y-113586804D03*
%TO.N,/MCU/SWDIO*%
X120850000Y-116000000D03*
%TO.N,/MCU/VBUS*%
X120850000Y-118500000D03*
%TO.N,/MCU/SWCLK*%
X120850000Y-114500000D03*
%TO.N,/MCU/VBUS*%
X140000000Y-131500000D03*
%TO.N,/MCU/BAT_SENSE*%
X140000000Y-129500000D03*
%TD*%
%TO.N,+3V3*%
D18*
X119500000Y-128000000D02*
X119000000Y-128000000D01*
X119000000Y-128000000D02*
X118000000Y-127000000D01*
X139585786Y-132500000D02*
X140414214Y-132500000D01*
X119500000Y-128000000D02*
X135085786Y-128000000D01*
X135085786Y-128000000D02*
X139585786Y-132500000D01*
X140414214Y-132500000D02*
X143000000Y-129914214D01*
X143000000Y-129914214D02*
X143000000Y-123500000D01*
X143000000Y-123500000D02*
X143725000Y-122775000D01*
X143725000Y-122775000D02*
X145000000Y-122775000D01*
D19*
X144775000Y-123000000D02*
X143500000Y-123000000D01*
X145000000Y-122775000D02*
X144775000Y-123000000D01*
X143500000Y-123000000D02*
X143431250Y-122931250D01*
%TO.N,+5V*%
D20*
X127425000Y-134263631D02*
X128418406Y-134263631D01*
X128418406Y-134263631D02*
X129490205Y-133191832D01*
%TO.N,/MCU/NFC_IRQ*%
D21*
X121000000Y-121400000D02*
X129500000Y-121400000D01*
%TO.N,BAT+*%
D20*
X119880000Y-109000000D02*
X122380000Y-106500000D01*
X122380000Y-106500000D02*
X136775000Y-106500000D01*
X136775000Y-106500000D02*
X142775000Y-112500000D01*
%TO.N,/MCU/VIB_EN*%
D21*
X153500000Y-110500000D02*
X156000000Y-113000000D01*
%TO.N,+5V*%
D20*
X140900000Y-135225000D02*
X140294544Y-135225000D01*
X139519544Y-136000000D02*
X132500000Y-136000000D01*
X140294544Y-135225000D02*
X139519544Y-136000000D01*
%TO.N,BAT+*%
D19*
X142775000Y-112500000D02*
X158000000Y-127725000D01*
X158000000Y-127725000D02*
X158000000Y-131800000D01*
X158000000Y-131800000D02*
X156200000Y-133600000D01*
%TO.N,+5V*%
D20*
X132500000Y-136000000D02*
X130500000Y-136000000D01*
X130500000Y-136000000D02*
X129490205Y-134990205D01*
X129490205Y-134990205D02*
X129490205Y-133191832D01*
%TO.N,+3V3*%
D18*
X118000000Y-127000000D02*
X111000000Y-127000000D01*
X111000000Y-127000000D02*
X109500000Y-125500000D01*
D19*
X107690000Y-127310000D02*
X109500000Y-125500000D01*
X104500000Y-127310000D02*
X107690000Y-127310000D01*
D22*
X107423619Y-113576381D02*
X102000000Y-119000000D01*
X110423619Y-113576381D02*
X107423619Y-113576381D01*
X102000000Y-119000000D02*
X102000000Y-124810000D01*
X102000000Y-124810000D02*
X104500000Y-127310000D01*
X109500000Y-107500000D02*
X109500000Y-112652762D01*
X109500000Y-112652762D02*
X110423619Y-113576381D01*
%TO.N,/RFID/DC3*%
D20*
X138025000Y-113500000D02*
X142225000Y-113500000D01*
X142225000Y-113500000D02*
X144000000Y-115275000D01*
%TO.N,/MCU/BAT_SENSE*%
D21*
X114910330Y-113586804D02*
X114923526Y-113600000D01*
X114923526Y-113600000D02*
X118450000Y-113600000D01*
X119850000Y-115000000D02*
X119850000Y-118650000D01*
X118450000Y-113600000D02*
X119850000Y-115000000D01*
X119850000Y-118650000D02*
X117850000Y-120650000D01*
X117850000Y-120650000D02*
X117850000Y-122500000D01*
%TO.N,/MCU/SWCLK*%
X120850000Y-114500000D02*
X119036804Y-112686804D01*
X114043196Y-112686804D02*
X104500000Y-122230000D01*
X119036804Y-112686804D02*
X114043196Y-112686804D01*
%TO.N,/MCU/SWDIO*%
X104500000Y-124770000D02*
X106000000Y-123270000D01*
X106000000Y-123270000D02*
X106000000Y-121154264D01*
X106000000Y-121154264D02*
X114167460Y-112986804D01*
X114167460Y-112986804D02*
X118336804Y-112986804D01*
X118336804Y-112986804D02*
X120850000Y-115500000D01*
X120850000Y-115500000D02*
X120850000Y-116000000D01*
%TO.N,/MCU/PN532_NSS*%
X120771320Y-112300000D02*
X121000000Y-112071320D01*
X121000000Y-112071320D02*
X121000000Y-110420000D01*
X121000000Y-110420000D02*
X122420000Y-109000000D01*
%TO.N,/MCU/NFC_MISO*%
X142000000Y-122000000D02*
X135500000Y-122000000D01*
X135500000Y-122000000D02*
X131500000Y-118000000D01*
X131500000Y-118000000D02*
X125622793Y-118000000D01*
X125622793Y-118000000D02*
X119022793Y-111400000D01*
X119022793Y-111400000D02*
X118000000Y-111400000D01*
%TO.N,/MCU/VBUS*%
X140000000Y-131500000D02*
X140000000Y-130500000D01*
X140000000Y-130500000D02*
X140674265Y-129825735D01*
X140674265Y-129825735D02*
X140674265Y-128000000D01*
X140674265Y-128000000D02*
X131174265Y-118500000D01*
X131174265Y-118500000D02*
X120850000Y-118500000D01*
%TO.N,/MCU/NFC_MOSI*%
X123425000Y-116226471D02*
X119198529Y-112000000D01*
X119198529Y-112000000D02*
X116500000Y-112000000D01*
X123425000Y-117075000D02*
X123425000Y-116226471D01*
%TO.N,/MCU/NFC_NSS*%
X128500000Y-122250000D02*
X128250000Y-122000000D01*
X128250000Y-122000000D02*
X119500000Y-122000000D01*
%TO.N,/MCU/BAT_SENSE*%
X117850000Y-122500000D02*
X117850000Y-125850000D01*
X117850000Y-125850000D02*
X119000000Y-127000000D01*
X119000000Y-127000000D02*
X137500000Y-127000000D01*
X137500000Y-127000000D02*
X140000000Y-129500000D01*
%TO.N,/MCU/VIB_EN*%
X119900000Y-126400000D02*
X128000000Y-126400000D01*
X119000000Y-125500000D02*
X119900000Y-126400000D01*
X119000000Y-123500000D02*
X119000000Y-125500000D01*
%TD*%
%TA.AperFunction,Conductor*%
%TO.N,+5V*%
G36*
X138687514Y-132521674D02*
G01*
X139171117Y-133005277D01*
X139277659Y-133076465D01*
X139396042Y-133125501D01*
X139396044Y-133125501D01*
X139396046Y-133125502D01*
X139438689Y-133133984D01*
X139521717Y-133150500D01*
X139521719Y-133150500D01*
X140478281Y-133150500D01*
X140478283Y-133150500D01*
X140603958Y-133125501D01*
X140722341Y-133076465D01*
X140828883Y-133005277D01*
X141312486Y-132521674D01*
X141364812Y-132500000D01*
X141913752Y-132500000D01*
X141966078Y-132521674D01*
X141987752Y-132574000D01*
X141966078Y-132626326D01*
X141950753Y-132638085D01*
X141943973Y-132641999D01*
X141841479Y-132744493D01*
X141769004Y-132870022D01*
X141769002Y-132870027D01*
X141731488Y-133010031D01*
X141731488Y-133154986D01*
X141769002Y-133294990D01*
X141769004Y-133294995D01*
X141841479Y-133420524D01*
X141943973Y-133523018D01*
X142069503Y-133595493D01*
X142069504Y-133595493D01*
X142069506Y-133595494D01*
X142139508Y-133614251D01*
X142209510Y-133633008D01*
X142209511Y-133633009D01*
X142209513Y-133633009D01*
X142354465Y-133633009D01*
X142354465Y-133633008D01*
X142494473Y-133595493D01*
X142620003Y-133523018D01*
X142722497Y-133420524D01*
X142794972Y-133294994D01*
X142832487Y-133154986D01*
X142832488Y-133154986D01*
X142832488Y-133010032D01*
X142832487Y-133010031D01*
X142794973Y-132870027D01*
X142794971Y-132870022D01*
X142722496Y-132744493D01*
X142620002Y-132641999D01*
X142613223Y-132638085D01*
X142578745Y-132593151D01*
X142586139Y-132536999D01*
X142631073Y-132502521D01*
X142650224Y-132500000D01*
X145926000Y-132500000D01*
X145978326Y-132521674D01*
X146000000Y-132574000D01*
X146000000Y-136426000D01*
X145978326Y-136478326D01*
X145926000Y-136500000D01*
X126457176Y-136500000D01*
X126404850Y-136478326D01*
X126383176Y-136426000D01*
X126404850Y-136373674D01*
X126440509Y-136338015D01*
X126512984Y-136212485D01*
X126550499Y-136072477D01*
X126550500Y-136072477D01*
X126550500Y-135927523D01*
X126550499Y-135927522D01*
X126512985Y-135787518D01*
X126512983Y-135787513D01*
X126440508Y-135661984D01*
X126338015Y-135559491D01*
X126212486Y-135487016D01*
X126212481Y-135487014D01*
X126072477Y-135449500D01*
X126067668Y-135448867D01*
X126067916Y-135446980D01*
X126021674Y-135427826D01*
X126000000Y-135375500D01*
X126000000Y-134507914D01*
X134697778Y-134507914D01*
X134697778Y-134652869D01*
X134735292Y-134792873D01*
X134735294Y-134792878D01*
X134807769Y-134918407D01*
X134910263Y-135020901D01*
X135035793Y-135093376D01*
X135035794Y-135093376D01*
X135035796Y-135093377D01*
X135105798Y-135112134D01*
X135175800Y-135130891D01*
X135175801Y-135130892D01*
X135175803Y-135130892D01*
X135320755Y-135130892D01*
X135320755Y-135130891D01*
X135460763Y-135093376D01*
X135586293Y-135020901D01*
X135688787Y-134918407D01*
X135761262Y-134792877D01*
X135798777Y-134652869D01*
X135798778Y-134652869D01*
X135798778Y-134507915D01*
X135798777Y-134507914D01*
X135761263Y-134367910D01*
X135761261Y-134367905D01*
X135688786Y-134242376D01*
X135586293Y-134139883D01*
X135460764Y-134067408D01*
X135460759Y-134067406D01*
X135320755Y-134029892D01*
X135320753Y-134029892D01*
X135175803Y-134029892D01*
X135175801Y-134029892D01*
X135035796Y-134067406D01*
X135035791Y-134067408D01*
X134910262Y-134139883D01*
X134807769Y-134242376D01*
X134735294Y-134367905D01*
X134735292Y-134367910D01*
X134697778Y-134507914D01*
X126000000Y-134507914D01*
X126000000Y-132574000D01*
X126021674Y-132521674D01*
X126074000Y-132500000D01*
X138635188Y-132500000D01*
X138687514Y-132521674D01*
G37*
%TD.AperFunction*%
%TD*%
%TA.AperFunction,Conductor*%
%TO.N,GND*%
G36*
X135306288Y-134238765D02*
G01*
X135368850Y-134255528D01*
X135392726Y-134265418D01*
X135448827Y-134297808D01*
X135469330Y-134313540D01*
X135515127Y-134359337D01*
X135530859Y-134379840D01*
X135563250Y-134435942D01*
X135573139Y-134459818D01*
X135589864Y-134522233D01*
X135589904Y-134522380D01*
X135593278Y-134548004D01*
X135593278Y-134612775D01*
X135589904Y-134638399D01*
X135573138Y-134700969D01*
X135563248Y-134724846D01*
X135530862Y-134780939D01*
X135515130Y-134801442D01*
X135469328Y-134847244D01*
X135448825Y-134862976D01*
X135392732Y-134895362D01*
X135368855Y-134905252D01*
X135306285Y-134922018D01*
X135280661Y-134925392D01*
X135215894Y-134925392D01*
X135190271Y-134922019D01*
X135158985Y-134913636D01*
X135158982Y-134913634D01*
X135127697Y-134905251D01*
X135103821Y-134895361D01*
X135047731Y-134862977D01*
X135027227Y-134847245D01*
X134981426Y-134801444D01*
X134965693Y-134780940D01*
X134965692Y-134780939D01*
X134933304Y-134724840D01*
X134923414Y-134700962D01*
X134906651Y-134638400D01*
X134903278Y-134612778D01*
X134903278Y-134548003D01*
X134906651Y-134522381D01*
X134923414Y-134459819D01*
X134933304Y-134435942D01*
X134965696Y-134379836D01*
X134981422Y-134359341D01*
X135027227Y-134313536D01*
X135047727Y-134297808D01*
X135103826Y-134265419D01*
X135127702Y-134255528D01*
X135147887Y-134250120D01*
X135190270Y-134238765D01*
X135215891Y-134235392D01*
X135280665Y-134235392D01*
X135306288Y-134238765D01*
G37*
%TD.AperFunction*%
%TA.AperFunction,Conductor*%
G36*
X120259157Y-118722003D02*
G01*
X120261573Y-118723003D01*
X120299859Y-118751197D01*
X120300268Y-118751689D01*
X120309874Y-118765476D01*
X120367167Y-118864710D01*
X120369480Y-118868716D01*
X120481284Y-118980520D01*
X120618216Y-119059577D01*
X120770943Y-119100500D01*
X120770945Y-119100500D01*
X120929055Y-119100500D01*
X120929057Y-119100500D01*
X121081784Y-119059577D01*
X121218716Y-118980520D01*
X121330520Y-118868716D01*
X121333485Y-118863580D01*
X121352975Y-118839512D01*
X121367080Y-118826811D01*
X121412758Y-118803540D01*
X121416905Y-118802659D01*
X121437470Y-118800500D01*
X130993106Y-118800500D01*
X131023697Y-118805345D01*
X131035128Y-118809059D01*
X131046923Y-118812891D01*
X131086336Y-118837042D01*
X140333682Y-128084388D01*
X140351887Y-128109446D01*
X140362974Y-128131205D01*
X140373765Y-128176151D01*
X140373765Y-128835388D01*
X140368919Y-128865982D01*
X140365398Y-128876818D01*
X140329434Y-128926318D01*
X140271244Y-128945224D01*
X140262274Y-128945224D01*
X140235062Y-128940730D01*
X140234920Y-128941263D01*
X140213743Y-128935589D01*
X140179143Y-128926318D01*
X140079057Y-128899500D01*
X140079055Y-128899500D01*
X139920940Y-128899500D01*
X139915204Y-128901037D01*
X139884404Y-128904272D01*
X139865452Y-128903278D01*
X139816719Y-128887443D01*
X139813171Y-128885139D01*
X139797085Y-128872114D01*
X137684512Y-126759541D01*
X137684498Y-126759531D01*
X137615999Y-126719983D01*
X137615987Y-126719977D01*
X137572335Y-126708281D01*
X137539564Y-126699500D01*
X137539562Y-126699500D01*
X128686132Y-126699500D01*
X128655534Y-126694653D01*
X128643832Y-126690850D01*
X128594334Y-126654883D01*
X128575464Y-126599294D01*
X128575200Y-126589226D01*
X128578539Y-126561014D01*
X128586717Y-126530496D01*
X128600500Y-126479057D01*
X128600500Y-126320943D01*
X128559577Y-126168216D01*
X128480520Y-126031284D01*
X128368716Y-125919480D01*
X128231784Y-125840423D01*
X128079057Y-125799500D01*
X128079055Y-125799500D01*
X127920945Y-125799500D01*
X127920943Y-125799500D01*
X127768216Y-125840423D01*
X127631284Y-125919480D01*
X127519478Y-126031286D01*
X127519476Y-126031289D01*
X127519470Y-126031296D01*
X127516510Y-126036424D01*
X127497023Y-126060489D01*
X127482919Y-126073189D01*
X127437265Y-126096454D01*
X127433122Y-126097335D01*
X127412530Y-126099500D01*
X120081159Y-126099500D01*
X120050566Y-126094654D01*
X120027339Y-126087107D01*
X119987928Y-126062957D01*
X119340582Y-125415611D01*
X119322376Y-125390552D01*
X119311288Y-125368790D01*
X119300500Y-125323848D01*
X119300500Y-124092741D01*
X119305344Y-124062152D01*
X119311209Y-124044099D01*
X119339116Y-124001122D01*
X119342266Y-123998286D01*
X119359015Y-123986119D01*
X119368716Y-123980520D01*
X119480520Y-123868716D01*
X119559577Y-123731784D01*
X119600500Y-123579057D01*
X119600500Y-123420943D01*
X119559577Y-123268216D01*
X119480520Y-123131284D01*
X119368716Y-123019480D01*
X119231784Y-122940423D01*
X119079057Y-122899500D01*
X119079055Y-122899500D01*
X118920945Y-122899500D01*
X118920943Y-122899500D01*
X118768216Y-122940423D01*
X118631284Y-123019480D01*
X118519480Y-123131284D01*
X118440423Y-123268216D01*
X118399500Y-123420943D01*
X118399500Y-123579057D01*
X118440423Y-123731784D01*
X118519480Y-123868716D01*
X118631284Y-123980520D01*
X118636420Y-123983485D01*
X118660489Y-124002974D01*
X118673191Y-124017080D01*
X118696453Y-124062727D01*
X118697334Y-124066873D01*
X118699500Y-124087465D01*
X118699500Y-125539564D01*
X118719978Y-125615988D01*
X118719979Y-125615989D01*
X118741616Y-125653466D01*
X118748909Y-125671501D01*
X118758189Y-125682173D01*
X118759537Y-125684507D01*
X118759539Y-125684510D01*
X119205524Y-126130496D01*
X119205525Y-126130496D01*
X119594438Y-126519409D01*
X119612645Y-126544470D01*
X119617609Y-126554213D01*
X119627179Y-126614645D01*
X119599400Y-126669161D01*
X119552521Y-126695418D01*
X119546926Y-126696762D01*
X119523803Y-126699500D01*
X119181159Y-126699500D01*
X119150566Y-126694654D01*
X119127339Y-126687107D01*
X119087928Y-126662957D01*
X118190582Y-125765611D01*
X118172376Y-125740552D01*
X118161288Y-125718790D01*
X118150500Y-125673848D01*
X118150500Y-123092741D01*
X118155344Y-123062152D01*
X118158168Y-123053460D01*
X118161209Y-123044099D01*
X118189116Y-123001122D01*
X118192266Y-122998286D01*
X118209015Y-122986119D01*
X118218716Y-122980520D01*
X118330520Y-122868716D01*
X118409577Y-122731784D01*
X118450500Y-122579057D01*
X118450500Y-122420943D01*
X118409577Y-122268216D01*
X118330520Y-122131284D01*
X118218716Y-122019480D01*
X118213579Y-122016514D01*
X118194070Y-121999821D01*
X118189504Y-121997018D01*
X118186150Y-121993292D01*
X118186148Y-121993290D01*
X118186144Y-121993286D01*
X118184457Y-121991767D01*
X118183886Y-121990778D01*
X118182676Y-121989434D01*
X118182961Y-121989176D01*
X118182884Y-121989043D01*
X118172860Y-121976619D01*
X118167291Y-121962033D01*
X118164181Y-121956647D01*
X118155753Y-121945047D01*
X118154256Y-121939457D01*
X118153868Y-121938783D01*
X118153071Y-121935033D01*
X118153071Y-121935029D01*
X118153064Y-121935001D01*
X118152656Y-121933078D01*
X118151382Y-121920943D01*
X118899500Y-121920943D01*
X118899500Y-122079057D01*
X118940423Y-122231784D01*
X119019480Y-122368716D01*
X119131284Y-122480520D01*
X119268216Y-122559577D01*
X119420943Y-122600500D01*
X119420945Y-122600500D01*
X119579055Y-122600500D01*
X119579057Y-122600500D01*
X119731784Y-122559577D01*
X119868716Y-122480520D01*
X119980520Y-122368716D01*
X119983485Y-122363580D01*
X120002975Y-122339512D01*
X120017080Y-122326811D01*
X120062758Y-122303540D01*
X120066905Y-122302659D01*
X120087470Y-122300500D01*
X127800203Y-122300500D01*
X127830791Y-122305343D01*
X127843478Y-122309466D01*
X127892978Y-122345427D01*
X127892981Y-122345431D01*
X127899474Y-122354368D01*
X127915007Y-122386934D01*
X127940421Y-122481780D01*
X127940421Y-122481781D01*
X127940423Y-122481784D01*
X128019480Y-122618716D01*
X128131284Y-122730520D01*
X128268216Y-122809577D01*
X128420943Y-122850500D01*
X128420945Y-122850500D01*
X128579055Y-122850500D01*
X128579057Y-122850500D01*
X128731784Y-122809577D01*
X128868716Y-122730520D01*
X128980520Y-122618716D01*
X129059577Y-122481784D01*
X129100500Y-122329057D01*
X129100500Y-122170943D01*
X129068720Y-122052340D01*
X129065484Y-122021544D01*
X129066056Y-122010622D01*
X129087982Y-121953503D01*
X129139297Y-121920179D01*
X129193038Y-121920882D01*
X129193245Y-121920944D01*
X129198555Y-121922517D01*
X129219935Y-121931703D01*
X129257695Y-121953503D01*
X129268216Y-121959577D01*
X129420943Y-122000500D01*
X129420945Y-122000500D01*
X129579055Y-122000500D01*
X129579057Y-122000500D01*
X129731784Y-121959577D01*
X129868716Y-121880520D01*
X129980520Y-121768716D01*
X130059577Y-121631784D01*
X130100500Y-121479057D01*
X130100500Y-121320943D01*
X130059577Y-121168216D01*
X129980520Y-121031284D01*
X129868716Y-120919480D01*
X129731784Y-120840423D01*
X129579057Y-120799500D01*
X129579055Y-120799500D01*
X129420945Y-120799500D01*
X129420943Y-120799500D01*
X129302794Y-120831158D01*
X129268216Y-120840423D01*
X129131284Y-120919480D01*
X129019478Y-121031286D01*
X129019470Y-121031296D01*
X129016510Y-121036424D01*
X128997023Y-121060489D01*
X128982919Y-121073189D01*
X128937265Y-121096454D01*
X128933122Y-121097335D01*
X128912530Y-121099500D01*
X121592742Y-121099500D01*
X121562145Y-121094653D01*
X121544097Y-121088788D01*
X121501128Y-121060884D01*
X121498294Y-121057737D01*
X121486125Y-121040990D01*
X121481999Y-121033844D01*
X121480921Y-121031841D01*
X121480521Y-121031286D01*
X121480520Y-121031284D01*
X121368716Y-120919480D01*
X121231784Y-120840423D01*
X121079057Y-120799500D01*
X121079055Y-120799500D01*
X120920945Y-120799500D01*
X120920943Y-120799500D01*
X120768216Y-120840423D01*
X120631284Y-120919480D01*
X120519480Y-121031284D01*
X120440423Y-121168216D01*
X120403817Y-121304834D01*
X120399500Y-121320944D01*
X120399500Y-121479059D01*
X120421116Y-121559735D01*
X120424353Y-121590539D01*
X120423709Y-121602824D01*
X120401782Y-121659945D01*
X120352967Y-121692563D01*
X120349798Y-121693501D01*
X120343314Y-121695422D01*
X120315195Y-121699500D01*
X120092742Y-121699500D01*
X120062145Y-121694653D01*
X120044097Y-121688788D01*
X120001128Y-121660884D01*
X119998294Y-121657737D01*
X119986125Y-121640990D01*
X119981999Y-121633844D01*
X119980921Y-121631841D01*
X119980521Y-121631286D01*
X119980520Y-121631284D01*
X119868716Y-121519480D01*
X119731784Y-121440423D01*
X119579057Y-121399500D01*
X119579055Y-121399500D01*
X119420945Y-121399500D01*
X119420943Y-121399500D01*
X119268216Y-121440423D01*
X119131284Y-121519480D01*
X119019480Y-121631284D01*
X118940423Y-121768216D01*
X118899500Y-121920943D01*
X118151382Y-121920943D01*
X118151299Y-121920152D01*
X118151035Y-121919459D01*
X118151173Y-121918946D01*
X118150500Y-121912531D01*
X118150500Y-120831158D01*
X118155344Y-120800569D01*
X118155691Y-120799500D01*
X118162891Y-120777338D01*
X118187040Y-120737929D01*
X120090460Y-118834511D01*
X120119167Y-118784789D01*
X120121662Y-118780468D01*
X120121923Y-118780014D01*
X120132428Y-118765127D01*
X120135424Y-118761617D01*
X120135425Y-118761618D01*
X120146023Y-118749203D01*
X120198183Y-118717225D01*
X120259157Y-118722003D01*
G37*
%TD.AperFunction*%
%TA.AperFunction,Conductor*%
G36*
X159415408Y-97004843D02*
G01*
X159428095Y-97008966D01*
X159477595Y-97044927D01*
X159477596Y-97044928D01*
X159480591Y-97049050D01*
X159499500Y-97107240D01*
X159499500Y-142994695D01*
X159499437Y-142998236D01*
X159499311Y-143001756D01*
X159499122Y-143005278D01*
X159484992Y-143202824D01*
X159484235Y-143209858D01*
X159483232Y-143216830D01*
X159481979Y-143223777D01*
X159441013Y-143412088D01*
X159439268Y-143418926D01*
X159437279Y-143425699D01*
X159435048Y-143432400D01*
X159367706Y-143612956D01*
X159365001Y-143619488D01*
X159362063Y-143625921D01*
X159358900Y-143632239D01*
X159266544Y-143801375D01*
X159262941Y-143807448D01*
X159259133Y-143813374D01*
X159255103Y-143819179D01*
X159255101Y-143819183D01*
X159255100Y-143819184D01*
X159139608Y-143973463D01*
X159135175Y-143978963D01*
X159130562Y-143984287D01*
X159125745Y-143989462D01*
X158989462Y-144125745D01*
X158984287Y-144130562D01*
X158978963Y-144135175D01*
X158973463Y-144139608D01*
X158819184Y-144255100D01*
X158813374Y-144259133D01*
X158807448Y-144262941D01*
X158801375Y-144266544D01*
X158632239Y-144358900D01*
X158625921Y-144362063D01*
X158619488Y-144365001D01*
X158612956Y-144367706D01*
X158432400Y-144435048D01*
X158425699Y-144437279D01*
X158418926Y-144439268D01*
X158412088Y-144441013D01*
X158239484Y-144478562D01*
X158223777Y-144481979D01*
X158216830Y-144483232D01*
X158209858Y-144484235D01*
X158202824Y-144484992D01*
X158005278Y-144499122D01*
X158001756Y-144499311D01*
X157998213Y-144499437D01*
X157994696Y-144499500D01*
X102005304Y-144499500D01*
X102001784Y-144499437D01*
X101998243Y-144499311D01*
X101994720Y-144499122D01*
X101797177Y-144484993D01*
X101790156Y-144484238D01*
X101790135Y-144484235D01*
X101783187Y-144483236D01*
X101776238Y-144481983D01*
X101587910Y-144441015D01*
X101581053Y-144439264D01*
X101574285Y-144437276D01*
X101567589Y-144435047D01*
X101404007Y-144374034D01*
X101387024Y-144367700D01*
X101380492Y-144364994D01*
X101374088Y-144362069D01*
X101367774Y-144358908D01*
X101198624Y-144266546D01*
X101192571Y-144262955D01*
X101186596Y-144259116D01*
X101180833Y-144255114D01*
X101026523Y-144139599D01*
X101021036Y-144135177D01*
X101015712Y-144130564D01*
X101010537Y-144125747D01*
X100874251Y-143989461D01*
X100869434Y-143984286D01*
X100864821Y-143978962D01*
X100860401Y-143973479D01*
X100744879Y-143819159D01*
X100740876Y-143813391D01*
X100737047Y-143807434D01*
X100733452Y-143801373D01*
X100702818Y-143745271D01*
X100702817Y-143745270D01*
X100702815Y-143745266D01*
X100641084Y-143632213D01*
X100637932Y-143625916D01*
X100635004Y-143619505D01*
X100632299Y-143612974D01*
X100564941Y-143432381D01*
X100562717Y-143425699D01*
X100560729Y-143418926D01*
X100558990Y-143412119D01*
X100518012Y-143223744D01*
X100516763Y-143216819D01*
X100515758Y-143209824D01*
X100515006Y-143202824D01*
X100500875Y-143005248D01*
X100500689Y-143001783D01*
X100500561Y-142998186D01*
X100500500Y-142994695D01*
X100500500Y-138664794D01*
X126673308Y-138664794D01*
X126673308Y-138789996D01*
X126705713Y-138910931D01*
X126768313Y-139019359D01*
X126856844Y-139107890D01*
X126965272Y-139170490D01*
X127086207Y-139202895D01*
X127086209Y-139202895D01*
X127211407Y-139202895D01*
X127211409Y-139202895D01*
X127332344Y-139170490D01*
X127440772Y-139107890D01*
X127529303Y-139019359D01*
X127591903Y-138910931D01*
X127624308Y-138789996D01*
X127624308Y-138664794D01*
X132453308Y-138664794D01*
X132453308Y-138789996D01*
X132485713Y-138910931D01*
X132548313Y-139019359D01*
X132636844Y-139107890D01*
X132745272Y-139170490D01*
X132866207Y-139202895D01*
X132866209Y-139202895D01*
X132991407Y-139202895D01*
X132991409Y-139202895D01*
X133112344Y-139170490D01*
X133220772Y-139107890D01*
X133309303Y-139019359D01*
X133371903Y-138910931D01*
X133404308Y-138789996D01*
X133404308Y-138664794D01*
X133371903Y-138543859D01*
X133309303Y-138435431D01*
X133220772Y-138346900D01*
X133112344Y-138284300D01*
X132991409Y-138251895D01*
X132991407Y-138251895D01*
X132866208Y-138251895D01*
X132866207Y-138251895D01*
X132826572Y-138262515D01*
X132785582Y-138273498D01*
X132785581Y-138273497D01*
X132745269Y-138284300D01*
X132745267Y-138284301D01*
X132636846Y-138346898D01*
X132636844Y-138346900D01*
X132548313Y-138435431D01*
X132485713Y-138543858D01*
X132485713Y-138543859D01*
X132453308Y-138664794D01*
X127624308Y-138664794D01*
X127591903Y-138543859D01*
X127529303Y-138435431D01*
X127440772Y-138346900D01*
X127332344Y-138284300D01*
X127211409Y-138251895D01*
X127211407Y-138251895D01*
X127086208Y-138251895D01*
X127086207Y-138251895D01*
X127046572Y-138262515D01*
X127005582Y-138273498D01*
X127005581Y-138273497D01*
X126965269Y-138284300D01*
X126965267Y-138284301D01*
X126856846Y-138346898D01*
X126856844Y-138346900D01*
X126768313Y-138435431D01*
X126705713Y-138543858D01*
X126705713Y-138543859D01*
X126673308Y-138664794D01*
X100500500Y-138664794D01*
X100500500Y-137911306D01*
X153194500Y-137911306D01*
X153194500Y-137915929D01*
X153194500Y-138088695D01*
X153227204Y-138253103D01*
X153227204Y-138253106D01*
X153229105Y-138262666D01*
X153242192Y-138294261D01*
X153295125Y-138422054D01*
X153296440Y-138425729D01*
X153296985Y-138426544D01*
X153296985Y-138426545D01*
X153375372Y-138543858D01*
X153395535Y-138574034D01*
X153520962Y-138699462D01*
X153520965Y-138699464D01*
X153668453Y-138798013D01*
X153668454Y-138798013D01*
X153668455Y-138798014D01*
X153670633Y-138798916D01*
X153832334Y-138865894D01*
X154006309Y-138900500D01*
X154006310Y-138900500D01*
X154183690Y-138900500D01*
X154183691Y-138900500D01*
X154357666Y-138865894D01*
X154521547Y-138798013D01*
X154669035Y-138699464D01*
X154794464Y-138574035D01*
X154893013Y-138426547D01*
X154947806Y-138294261D01*
X154963991Y-138267850D01*
X154971092Y-138259536D01*
X155023261Y-138227567D01*
X155084258Y-138232368D01*
X155126456Y-138265631D01*
X155129839Y-138270286D01*
X155141217Y-138290600D01*
X155152532Y-138317918D01*
X155197426Y-138426304D01*
X155197429Y-138426309D01*
X155204520Y-138436922D01*
X155204521Y-138436923D01*
X155518142Y-138123301D01*
X155572657Y-138095525D01*
X155633089Y-138105096D01*
X155673880Y-138143805D01*
X155707370Y-138201810D01*
X155714930Y-138214905D01*
X155780095Y-138280070D01*
X155851192Y-138321118D01*
X155892132Y-138366586D01*
X155898528Y-138427436D01*
X155871695Y-138476856D01*
X155558075Y-138790476D01*
X155558075Y-138790477D01*
X155568690Y-138797570D01*
X155568693Y-138797571D01*
X155568700Y-138797574D01*
X155569827Y-138798126D01*
X155571913Y-138798905D01*
X155732479Y-138865413D01*
X155904027Y-138899535D01*
X155905769Y-138899926D01*
X155906353Y-138899998D01*
X155906355Y-138899999D01*
X155906359Y-138900000D01*
X155906364Y-138900000D01*
X156083641Y-138900000D01*
X156083643Y-138900000D01*
X156087555Y-138899364D01*
X156089725Y-138898789D01*
X156257518Y-138865414D01*
X156420836Y-138797764D01*
X156421291Y-138797579D01*
X156421313Y-138797567D01*
X156421312Y-138797567D01*
X156421316Y-138797566D01*
X156431923Y-138790477D01*
X156431922Y-138790476D01*
X156431923Y-138790476D01*
X156118304Y-138476858D01*
X156090526Y-138422341D01*
X156100097Y-138361909D01*
X156138804Y-138321119D01*
X156209905Y-138280070D01*
X156275070Y-138214905D01*
X156316119Y-138143804D01*
X156361587Y-138102866D01*
X156422437Y-138096470D01*
X156471858Y-138123304D01*
X156785476Y-138436923D01*
X156785476Y-138436922D01*
X156785477Y-138436923D01*
X156792566Y-138426316D01*
X156792568Y-138426311D01*
X156792570Y-138426307D01*
X156792579Y-138426291D01*
X156792797Y-138425757D01*
X156794335Y-138422045D01*
X156860414Y-138262518D01*
X156893789Y-138094725D01*
X156894364Y-138092555D01*
X156895000Y-138088642D01*
X156895000Y-137911356D01*
X156894364Y-137907443D01*
X156893789Y-137905273D01*
X156860413Y-137737480D01*
X156860413Y-137737478D01*
X156817307Y-137633410D01*
X156793917Y-137576941D01*
X156793132Y-137574839D01*
X156792571Y-137573693D01*
X156792570Y-137573690D01*
X156785476Y-137563075D01*
X156567520Y-137781032D01*
X156471857Y-137876695D01*
X156417340Y-137904472D01*
X156356908Y-137894901D01*
X156316118Y-137856193D01*
X156275070Y-137785095D01*
X156209905Y-137719930D01*
X156185320Y-137705736D01*
X156138805Y-137678880D01*
X156097865Y-137633410D01*
X156091470Y-137572560D01*
X156118301Y-137523142D01*
X156431923Y-137209521D01*
X156431922Y-137209520D01*
X156421309Y-137202429D01*
X156421304Y-137202426D01*
X156257520Y-137134586D01*
X156083646Y-137100000D01*
X156083644Y-137100000D01*
X155906355Y-137100000D01*
X155906352Y-137100000D01*
X155732482Y-137134584D01*
X155605793Y-137187060D01*
X155568692Y-137202429D01*
X155568687Y-137202431D01*
X155558075Y-137209520D01*
X155558075Y-137209521D01*
X155871697Y-137523143D01*
X155899473Y-137577658D01*
X155889902Y-137638090D01*
X155851193Y-137678881D01*
X155780096Y-137719929D01*
X155714929Y-137785096D01*
X155673881Y-137856193D01*
X155628411Y-137897133D01*
X155567561Y-137903528D01*
X155518143Y-137876697D01*
X155204521Y-137563075D01*
X155204520Y-137563075D01*
X155197429Y-137573690D01*
X155197426Y-137573695D01*
X155142734Y-137705736D01*
X155126549Y-137732147D01*
X155121997Y-137737477D01*
X155119447Y-137740463D01*
X155067277Y-137772431D01*
X155006280Y-137767629D01*
X154964077Y-137734359D01*
X154960694Y-137729703D01*
X154949321Y-137709395D01*
X154894871Y-137577939D01*
X154893557Y-137574268D01*
X154893014Y-137573455D01*
X154893014Y-137573454D01*
X154794464Y-137425965D01*
X154669034Y-137300535D01*
X154570483Y-137234685D01*
X154521543Y-137201984D01*
X154357667Y-137134106D01*
X154357666Y-137134106D01*
X154299675Y-137122570D01*
X154183695Y-137099500D01*
X154183693Y-137099500D01*
X154183691Y-137099500D01*
X154006309Y-137099500D01*
X154006306Y-137099500D01*
X154006303Y-137099500D01*
X153841896Y-137132204D01*
X153841890Y-137132204D01*
X153832330Y-137134105D01*
X153672952Y-137200122D01*
X153669271Y-137201439D01*
X153520965Y-137300534D01*
X153395534Y-137425965D01*
X153296439Y-137574271D01*
X153295122Y-137577952D01*
X153229105Y-137737330D01*
X153227244Y-137746689D01*
X153227203Y-137746896D01*
X153194500Y-137911306D01*
X100500500Y-137911306D01*
X100500500Y-118953857D01*
X101649500Y-118953857D01*
X101649500Y-124856144D01*
X101672077Y-124940410D01*
X101672078Y-124940410D01*
X101673385Y-124945289D01*
X101719528Y-125025209D01*
X101719530Y-125025212D01*
X102583882Y-125889564D01*
X103409418Y-126715100D01*
X103427623Y-126740158D01*
X103438709Y-126761915D01*
X103449500Y-126806861D01*
X103449500Y-128179753D01*
X103449501Y-128179758D01*
X103461132Y-128238227D01*
X103461133Y-128238231D01*
X103505448Y-128304552D01*
X103571769Y-128348867D01*
X103594000Y-128353289D01*
X103616228Y-128357711D01*
X103616231Y-128357711D01*
X103624159Y-128359288D01*
X103626324Y-128359861D01*
X103628514Y-128360217D01*
X103630081Y-128360500D01*
X103630252Y-128360500D01*
X103630253Y-128360500D01*
X105369747Y-128360500D01*
X105369748Y-128360500D01*
X105428231Y-128348867D01*
X105494552Y-128304552D01*
X105538867Y-128238231D01*
X105550500Y-128179748D01*
X105550500Y-128025180D01*
X105555343Y-127994594D01*
X105559465Y-127981905D01*
X105595423Y-127932406D01*
X105596022Y-127931971D01*
X105599563Y-127929400D01*
X105657743Y-127910500D01*
X107603303Y-127910500D01*
X107603367Y-127910501D01*
X107604880Y-127910501D01*
X107610943Y-127910501D01*
X107769056Y-127910501D01*
X107769057Y-127910501D01*
X107921785Y-127869577D01*
X107971904Y-127840639D01*
X108058716Y-127790520D01*
X108170520Y-127678716D01*
X108170521Y-127678713D01*
X109348203Y-126501030D01*
X109373254Y-126482831D01*
X109385143Y-126476773D01*
X109445569Y-126467203D01*
X109450604Y-126468000D01*
X109505120Y-126495777D01*
X110253822Y-127244478D01*
X110553458Y-127544114D01*
X110669180Y-127621438D01*
X110669205Y-127621454D01*
X110669399Y-127621584D01*
X110673789Y-127623094D01*
X110718975Y-127641811D01*
X110795671Y-127673580D01*
X110821492Y-127678716D01*
X110931007Y-127700500D01*
X117653155Y-127700500D01*
X117683746Y-127705345D01*
X117696083Y-127709353D01*
X117706972Y-127712891D01*
X117746385Y-127737042D01*
X118553457Y-128544114D01*
X118668189Y-128620775D01*
X118795672Y-128673580D01*
X118931006Y-128700500D01*
X118931007Y-128700500D01*
X119431007Y-128700500D01*
X134738941Y-128700500D01*
X134769532Y-128705345D01*
X134781869Y-128709353D01*
X134792758Y-128712891D01*
X134832171Y-128737042D01*
X138220625Y-132125496D01*
X138248402Y-132180013D01*
X138238831Y-132240445D01*
X138195566Y-132283710D01*
X138150621Y-132294500D01*
X126073999Y-132294500D01*
X125995357Y-132310143D01*
X125943035Y-132331815D01*
X125884739Y-132368444D01*
X125831816Y-132443033D01*
X125816490Y-132480033D01*
X125810143Y-132495359D01*
X125804434Y-132524058D01*
X125794500Y-132573999D01*
X125794500Y-135375500D01*
X125810143Y-135454142D01*
X125831815Y-135506464D01*
X125831817Y-135506467D01*
X125868445Y-135564760D01*
X125943033Y-135617683D01*
X125943034Y-135617683D01*
X125943035Y-135617684D01*
X125989211Y-135636811D01*
X125994545Y-135641366D01*
X126004324Y-135643987D01*
X126012947Y-135646914D01*
X126014621Y-135646782D01*
X126017169Y-135647429D01*
X126019290Y-135647997D01*
X126019290Y-135647998D01*
X126077183Y-135663510D01*
X126120572Y-135675137D01*
X126144448Y-135685026D01*
X126200549Y-135717416D01*
X126221052Y-135733148D01*
X126266849Y-135778945D01*
X126282581Y-135799448D01*
X126314972Y-135855550D01*
X126324862Y-135879427D01*
X126341626Y-135941988D01*
X126345000Y-135967612D01*
X126345000Y-136032383D01*
X126341626Y-136058007D01*
X126324860Y-136120577D01*
X126314970Y-136144454D01*
X126282582Y-136200550D01*
X126266856Y-136221046D01*
X126259541Y-136228362D01*
X126214991Y-136295036D01*
X126193321Y-136347352D01*
X126193316Y-136347367D01*
X126177998Y-136414474D01*
X126177998Y-136414476D01*
X126193318Y-136504638D01*
X126193319Y-136504641D01*
X126214993Y-136556967D01*
X126251621Y-136615261D01*
X126326209Y-136668183D01*
X126378535Y-136689857D01*
X126457176Y-136705500D01*
X145925999Y-136705500D01*
X145926000Y-136705500D01*
X146004641Y-136689857D01*
X146056967Y-136668183D01*
X146115261Y-136631555D01*
X146168183Y-136556967D01*
X146189857Y-136504641D01*
X146205500Y-136426000D01*
X146205500Y-132574000D01*
X146189857Y-132495359D01*
X146168183Y-132443033D01*
X146131555Y-132384739D01*
X146108589Y-132368444D01*
X146056966Y-132331816D01*
X146035291Y-132322838D01*
X146004641Y-132310143D01*
X145926000Y-132294500D01*
X142650224Y-132294500D01*
X142623397Y-132296258D01*
X142623388Y-132296259D01*
X142604268Y-132298776D01*
X142589100Y-132301353D01*
X142522695Y-132331815D01*
X142505975Y-132339485D01*
X142489584Y-132352061D01*
X142461045Y-132373959D01*
X142414214Y-132424429D01*
X142382397Y-132510171D01*
X142382396Y-132510176D01*
X142380568Y-132524058D01*
X142380567Y-132524069D01*
X142375004Y-132566323D01*
X142377577Y-132635122D01*
X142378778Y-132637740D01*
X142378778Y-132637741D01*
X142409615Y-132704964D01*
X142415709Y-132718249D01*
X142450187Y-132763183D01*
X142450188Y-132763184D01*
X142450188Y-132763185D01*
X142450834Y-132763751D01*
X142455564Y-132768181D01*
X142548837Y-132861455D01*
X142564569Y-132881957D01*
X142596960Y-132938059D01*
X142606850Y-132961936D01*
X142623614Y-133024497D01*
X142626988Y-133050121D01*
X142626988Y-133114892D01*
X142623614Y-133140516D01*
X142606848Y-133203086D01*
X142596958Y-133226963D01*
X142564572Y-133283056D01*
X142548840Y-133303559D01*
X142503038Y-133349361D01*
X142482535Y-133365093D01*
X142426442Y-133397479D01*
X142402565Y-133407369D01*
X142339995Y-133424135D01*
X142314371Y-133427509D01*
X142249604Y-133427509D01*
X142223981Y-133424136D01*
X142192695Y-133415753D01*
X142192692Y-133415751D01*
X142161407Y-133407368D01*
X142137531Y-133397478D01*
X142081441Y-133365094D01*
X142060937Y-133349362D01*
X142015136Y-133303561D01*
X141999403Y-133283057D01*
X141999402Y-133283056D01*
X141967014Y-133226957D01*
X141957124Y-133203079D01*
X141940361Y-133140517D01*
X141936988Y-133114895D01*
X141936988Y-133050120D01*
X141940361Y-133024498D01*
X141957124Y-132961936D01*
X141967014Y-132938059D01*
X141999406Y-132881953D01*
X142015132Y-132861458D01*
X142069634Y-132806956D01*
X142079358Y-132798430D01*
X142091177Y-132789362D01*
X142103013Y-132779555D01*
X142155935Y-132704967D01*
X142177609Y-132652641D01*
X142192929Y-132585523D01*
X142177609Y-132495359D01*
X142155935Y-132443033D01*
X142119307Y-132384739D01*
X142096341Y-132368444D01*
X142044718Y-132331816D01*
X142023043Y-132322838D01*
X141992393Y-132310143D01*
X141913752Y-132294500D01*
X141849379Y-132294500D01*
X141791188Y-132275593D01*
X141755224Y-132226093D01*
X141755224Y-132164907D01*
X141779375Y-132125496D01*
X142135543Y-131769328D01*
X143544114Y-130360757D01*
X143620775Y-130246025D01*
X143673580Y-130118542D01*
X143700500Y-129983208D01*
X143700500Y-129845220D01*
X143700500Y-123846845D01*
X143705344Y-123816256D01*
X143712891Y-123793025D01*
X143737040Y-123753616D01*
X143850077Y-123640579D01*
X143875129Y-123622378D01*
X143896896Y-123611288D01*
X143941837Y-123600500D01*
X144688303Y-123600500D01*
X144688367Y-123600501D01*
X144689880Y-123600501D01*
X144695943Y-123600501D01*
X144854056Y-123600501D01*
X144854057Y-123600501D01*
X145006785Y-123559577D01*
X145056904Y-123530639D01*
X145143716Y-123480520D01*
X145143722Y-123480513D01*
X145144419Y-123479979D01*
X145158025Y-123471203D01*
X145186539Y-123455962D01*
X145199840Y-123450453D01*
X145199835Y-123450441D01*
X145293193Y-123411771D01*
X145331811Y-123395775D01*
X145446542Y-123319114D01*
X145544114Y-123221542D01*
X145620775Y-123106811D01*
X145673580Y-122979328D01*
X145700500Y-122843993D01*
X145700500Y-122706007D01*
X145673580Y-122570672D01*
X145620775Y-122443189D01*
X145620774Y-122443187D01*
X145620771Y-122443182D01*
X145544114Y-122328458D01*
X145446541Y-122230885D01*
X145446540Y-122230884D01*
X145331824Y-122154232D01*
X145331801Y-122154219D01*
X145204329Y-122101420D01*
X145068995Y-122074500D01*
X145068993Y-122074500D01*
X143793994Y-122074500D01*
X143656006Y-122074500D01*
X143656003Y-122074500D01*
X143656002Y-122074500D01*
X143530234Y-122099518D01*
X143530231Y-122099518D01*
X143520670Y-122101419D01*
X143393191Y-122154222D01*
X143278463Y-122230880D01*
X142455880Y-123053463D01*
X142379222Y-123168191D01*
X142326419Y-123295670D01*
X142324518Y-123305231D01*
X142324518Y-123305232D01*
X142306508Y-123395777D01*
X142303327Y-123411770D01*
X142301502Y-123420944D01*
X142300713Y-123424912D01*
X142300135Y-123427092D01*
X142299500Y-123431005D01*
X142299500Y-129567367D01*
X142294654Y-129597960D01*
X142287107Y-129621187D01*
X142262957Y-129660598D01*
X140696945Y-131226609D01*
X140671883Y-131244816D01*
X140660921Y-131250401D01*
X140600489Y-131259971D01*
X140547829Y-131233999D01*
X140540529Y-131227071D01*
X140522943Y-131204762D01*
X140480521Y-131131286D01*
X140480520Y-131131284D01*
X140368716Y-131019480D01*
X140363579Y-131016514D01*
X140339503Y-130997017D01*
X140326805Y-130982913D01*
X140303541Y-130937247D01*
X140302661Y-130933105D01*
X140300500Y-130912531D01*
X140300500Y-130681158D01*
X140305344Y-130650569D01*
X140308659Y-130640366D01*
X140312891Y-130627338D01*
X140337040Y-130587929D01*
X140914725Y-130010246D01*
X140914728Y-130010241D01*
X140954285Y-129941727D01*
X140954285Y-129941725D01*
X140954287Y-129941723D01*
X140974765Y-129865297D01*
X140974765Y-129786173D01*
X140974765Y-127960438D01*
X140954286Y-127884011D01*
X140952051Y-127880141D01*
X140945950Y-127869572D01*
X140945949Y-127869571D01*
X140914729Y-127815493D01*
X140914725Y-127815489D01*
X140812001Y-127712764D01*
X140812001Y-127712765D01*
X135579826Y-122480590D01*
X135561620Y-122455531D01*
X135556654Y-122445784D01*
X135547085Y-122385354D01*
X135574864Y-122330838D01*
X135621763Y-122304577D01*
X135627359Y-122303234D01*
X135650462Y-122300500D01*
X141407258Y-122300500D01*
X141437852Y-122305346D01*
X141455899Y-122311210D01*
X141498869Y-122339112D01*
X141501705Y-122342261D01*
X141513877Y-122359012D01*
X141519480Y-122368717D01*
X141593932Y-122443168D01*
X141631284Y-122480520D01*
X141768216Y-122559577D01*
X141920943Y-122600500D01*
X141920945Y-122600500D01*
X142079055Y-122600500D01*
X142079057Y-122600500D01*
X142231784Y-122559577D01*
X142368716Y-122480520D01*
X142480520Y-122368716D01*
X142559577Y-122231784D01*
X142600500Y-122079057D01*
X142600500Y-121920943D01*
X142559577Y-121768216D01*
X142480520Y-121631284D01*
X142368716Y-121519480D01*
X142231784Y-121440423D01*
X142079057Y-121399500D01*
X142079055Y-121399500D01*
X141920945Y-121399500D01*
X141920943Y-121399500D01*
X141768216Y-121440423D01*
X141631284Y-121519480D01*
X141519478Y-121631286D01*
X141519470Y-121631296D01*
X141516510Y-121636424D01*
X141497023Y-121660489D01*
X141482919Y-121673189D01*
X141437265Y-121696454D01*
X141433122Y-121697335D01*
X141412530Y-121699500D01*
X135681159Y-121699500D01*
X135650566Y-121694654D01*
X135627339Y-121687107D01*
X135587928Y-121662957D01*
X133680797Y-119755826D01*
X132683129Y-118758158D01*
X131684511Y-117759540D01*
X131684508Y-117759538D01*
X131684504Y-117759535D01*
X131684500Y-117759533D01*
X131615994Y-117719981D01*
X131615993Y-117719980D01*
X131615992Y-117719980D01*
X131615988Y-117719978D01*
X131599829Y-117715648D01*
X131539566Y-117699500D01*
X131539564Y-117699500D01*
X131539562Y-117699500D01*
X125803952Y-117699500D01*
X125773359Y-117694654D01*
X125750132Y-117687107D01*
X125710721Y-117662957D01*
X121044709Y-112996945D01*
X121026502Y-112971883D01*
X121020917Y-112960921D01*
X121011347Y-112900489D01*
X121037312Y-112847836D01*
X121044248Y-112840528D01*
X121066550Y-112822945D01*
X121140036Y-112780520D01*
X121251840Y-112668716D01*
X121330897Y-112531784D01*
X121371820Y-112379057D01*
X121371820Y-112220943D01*
X121330897Y-112068216D01*
X121320280Y-112049826D01*
X121310390Y-112025949D01*
X121303873Y-112001625D01*
X121300500Y-111976004D01*
X121300500Y-110601158D01*
X121305344Y-110570569D01*
X121312891Y-110547338D01*
X121337040Y-110507929D01*
X121858623Y-109986345D01*
X121883676Y-109968144D01*
X121897466Y-109961118D01*
X121954042Y-109951014D01*
X121964004Y-109952193D01*
X121990243Y-109959041D01*
X122113580Y-110010130D01*
X122316535Y-110050500D01*
X122316536Y-110050500D01*
X122523464Y-110050500D01*
X122523465Y-110050500D01*
X122726420Y-110010130D01*
X122917598Y-109930941D01*
X123089655Y-109815977D01*
X123235977Y-109669655D01*
X123350941Y-109497598D01*
X123430130Y-109306420D01*
X123470500Y-109103465D01*
X123470500Y-108896535D01*
X123470499Y-108896532D01*
X123470498Y-108896529D01*
X123909500Y-108896529D01*
X123909500Y-109103469D01*
X123935287Y-109233109D01*
X123949868Y-109306415D01*
X123949869Y-109306417D01*
X123949869Y-109306419D01*
X124029056Y-109497594D01*
X124088569Y-109586663D01*
X124144020Y-109669651D01*
X124144023Y-109669655D01*
X124290345Y-109815977D01*
X124462402Y-109930941D01*
X124653580Y-110010130D01*
X124856535Y-110050500D01*
X124856536Y-110050500D01*
X125063464Y-110050500D01*
X125063465Y-110050500D01*
X125266420Y-110010130D01*
X125457598Y-109930941D01*
X125629655Y-109815977D01*
X125775977Y-109669655D01*
X125890941Y-109497598D01*
X125970130Y-109306420D01*
X126010500Y-109103465D01*
X126010500Y-108896535D01*
X126010499Y-108896532D01*
X126010498Y-108896529D01*
X126449500Y-108896529D01*
X126449500Y-109103469D01*
X126475287Y-109233109D01*
X126489868Y-109306415D01*
X126489869Y-109306417D01*
X126489869Y-109306419D01*
X126569056Y-109497594D01*
X126628569Y-109586663D01*
X126684020Y-109669651D01*
X126684023Y-109669655D01*
X126830345Y-109815977D01*
X127002402Y-109930941D01*
X127193580Y-110010130D01*
X127396535Y-110050500D01*
X127396536Y-110050500D01*
X127603464Y-110050500D01*
X127603465Y-110050500D01*
X127806420Y-110010130D01*
X127997598Y-109930941D01*
X128169655Y-109815977D01*
X128315977Y-109669655D01*
X128430941Y-109497598D01*
X128510130Y-109306420D01*
X128550500Y-109103465D01*
X128550500Y-108896535D01*
X128510130Y-108693580D01*
X128430941Y-108502402D01*
X128315977Y-108330345D01*
X128169655Y-108184023D01*
X128169651Y-108184020D01*
X128089182Y-108130253D01*
X128089170Y-108130245D01*
X128989500Y-108130245D01*
X128989500Y-109869753D01*
X128995242Y-109898621D01*
X129001132Y-109928227D01*
X129001134Y-109928233D01*
X129013999Y-109947486D01*
X129045448Y-109994552D01*
X129111769Y-110038867D01*
X129134000Y-110043289D01*
X129156228Y-110047711D01*
X129156231Y-110047711D01*
X129164159Y-110049288D01*
X129166324Y-110049861D01*
X129168514Y-110050217D01*
X129170081Y-110050500D01*
X129170252Y-110050500D01*
X129170253Y-110050500D01*
X130909747Y-110050500D01*
X130909748Y-110050500D01*
X130968231Y-110038867D01*
X131034552Y-109994552D01*
X131078867Y-109928231D01*
X131090500Y-109869748D01*
X131090500Y-108130252D01*
X131078867Y-108071769D01*
X131034552Y-108005448D01*
X131034548Y-108005445D01*
X130998790Y-107981552D01*
X130968232Y-107961133D01*
X130968227Y-107961131D01*
X130968025Y-107961063D01*
X130966488Y-107960786D01*
X130909768Y-107949503D01*
X130909758Y-107949501D01*
X130909753Y-107949500D01*
X130909750Y-107949500D01*
X130909748Y-107949500D01*
X129170252Y-107949500D01*
X129170251Y-107949500D01*
X129170245Y-107949500D01*
X129111778Y-107961130D01*
X129111763Y-107961135D01*
X129045454Y-108005442D01*
X129045442Y-108005454D01*
X129001135Y-108071763D01*
X129001130Y-108071778D01*
X128989500Y-108130245D01*
X128089170Y-108130245D01*
X127998260Y-108069501D01*
X127997597Y-108069058D01*
X127997596Y-108069057D01*
X127997594Y-108069056D01*
X127806418Y-107989869D01*
X127603469Y-107949500D01*
X127603467Y-107949500D01*
X127603465Y-107949500D01*
X127396535Y-107949500D01*
X127396532Y-107949500D01*
X127396529Y-107949500D01*
X127193581Y-107989869D01*
X127193579Y-107989869D01*
X127002404Y-108069056D01*
X126830351Y-108184017D01*
X126684017Y-108330351D01*
X126569056Y-108502404D01*
X126489869Y-108693579D01*
X126489869Y-108693581D01*
X126449500Y-108896529D01*
X126010498Y-108896529D01*
X125972461Y-108705299D01*
X125970130Y-108693580D01*
X125890941Y-108502402D01*
X125775977Y-108330345D01*
X125629655Y-108184023D01*
X125629651Y-108184020D01*
X125549182Y-108130253D01*
X125458260Y-108069501D01*
X125457597Y-108069058D01*
X125457596Y-108069057D01*
X125457594Y-108069056D01*
X125266418Y-107989869D01*
X125063469Y-107949500D01*
X125063467Y-107949500D01*
X125063465Y-107949500D01*
X124856535Y-107949500D01*
X124856532Y-107949500D01*
X124856529Y-107949500D01*
X124653581Y-107989869D01*
X124653579Y-107989869D01*
X124462404Y-108069056D01*
X124290351Y-108184017D01*
X124144017Y-108330351D01*
X124029056Y-108502404D01*
X123949869Y-108693579D01*
X123949869Y-108693581D01*
X123909500Y-108896529D01*
X123470498Y-108896529D01*
X123432461Y-108705299D01*
X123430130Y-108693580D01*
X123350941Y-108502402D01*
X123235977Y-108330345D01*
X123089655Y-108184023D01*
X123089651Y-108184020D01*
X123009182Y-108130253D01*
X122918260Y-108069501D01*
X122917597Y-108069058D01*
X122917596Y-108069057D01*
X122917594Y-108069056D01*
X122726418Y-107989869D01*
X122523469Y-107949500D01*
X122523467Y-107949500D01*
X122523465Y-107949500D01*
X122316535Y-107949500D01*
X122316532Y-107949500D01*
X122316529Y-107949500D01*
X122113581Y-107989869D01*
X122113579Y-107989869D01*
X121922404Y-108069056D01*
X121750351Y-108184017D01*
X121604017Y-108330351D01*
X121489056Y-108502404D01*
X121409869Y-108693579D01*
X121409869Y-108693581D01*
X121369500Y-108896529D01*
X121369500Y-109103469D01*
X121409868Y-109306415D01*
X121409870Y-109306421D01*
X121460195Y-109427915D01*
X121467426Y-109458035D01*
X121468640Y-109473463D01*
X121456322Y-109529602D01*
X121451428Y-109538341D01*
X121435055Y-109559971D01*
X120844486Y-110150542D01*
X120844481Y-110150544D01*
X120759538Y-110235489D01*
X120719981Y-110304003D01*
X120719981Y-110304005D01*
X120719980Y-110304007D01*
X120719978Y-110304011D01*
X120719976Y-110304016D01*
X120719976Y-110304018D01*
X120699500Y-110380432D01*
X120699500Y-111605914D01*
X120694654Y-111636507D01*
X120690532Y-111649193D01*
X120654568Y-111698693D01*
X120645631Y-111705186D01*
X120613067Y-111720719D01*
X120596215Y-111725235D01*
X120596213Y-111725235D01*
X120539535Y-111740422D01*
X120539531Y-111740424D01*
X120402606Y-111819478D01*
X120290797Y-111931287D01*
X120249037Y-112003615D01*
X120229552Y-112027679D01*
X120220411Y-112035911D01*
X120164518Y-112060802D01*
X120106923Y-112049348D01*
X120098075Y-112044544D01*
X120075309Y-112027545D01*
X119669359Y-111621595D01*
X119669359Y-111621594D01*
X119207305Y-111159541D01*
X119207303Y-111159539D01*
X119207297Y-111159535D01*
X119207293Y-111159533D01*
X119138787Y-111119981D01*
X119138786Y-111119980D01*
X119138785Y-111119980D01*
X119138781Y-111119978D01*
X119119666Y-111114856D01*
X119062359Y-111099500D01*
X119062357Y-111099500D01*
X119062355Y-111099500D01*
X118592742Y-111099500D01*
X118562145Y-111094653D01*
X118544097Y-111088788D01*
X118501128Y-111060884D01*
X118498294Y-111057737D01*
X118486125Y-111040990D01*
X118481999Y-111033844D01*
X118480921Y-111031841D01*
X118480521Y-111031286D01*
X118480520Y-111031284D01*
X118368716Y-110919480D01*
X118231784Y-110840423D01*
X118079057Y-110799500D01*
X118079055Y-110799500D01*
X117920945Y-110799500D01*
X117920943Y-110799500D01*
X117768216Y-110840423D01*
X117631284Y-110919480D01*
X117519480Y-111031284D01*
X117440423Y-111168216D01*
X117399500Y-111320943D01*
X117399500Y-111479057D01*
X117421117Y-111559732D01*
X117424354Y-111590545D01*
X117423709Y-111602831D01*
X117401777Y-111659951D01*
X117352967Y-111692563D01*
X117349798Y-111693501D01*
X117343314Y-111695422D01*
X117315195Y-111699500D01*
X117092742Y-111699500D01*
X117062145Y-111694653D01*
X117044097Y-111688788D01*
X117001128Y-111660884D01*
X116998294Y-111657737D01*
X116986125Y-111640990D01*
X116981999Y-111633844D01*
X116980921Y-111631841D01*
X116980521Y-111631286D01*
X116980520Y-111631284D01*
X116868716Y-111519480D01*
X116731784Y-111440423D01*
X116579057Y-111399500D01*
X116579055Y-111399500D01*
X116420945Y-111399500D01*
X116420943Y-111399500D01*
X116268216Y-111440423D01*
X116131284Y-111519480D01*
X116019480Y-111631284D01*
X115940423Y-111768216D01*
X115908567Y-111887107D01*
X115899500Y-111920944D01*
X115899500Y-112079056D01*
X115913495Y-112131287D01*
X115940425Y-112231792D01*
X115941454Y-112234275D01*
X115946827Y-112251580D01*
X115949528Y-112264291D01*
X115943129Y-112325140D01*
X115902192Y-112370603D01*
X115897973Y-112373039D01*
X115848471Y-112386304D01*
X114003631Y-112386304D01*
X113952681Y-112399956D01*
X113927206Y-112406782D01*
X113927203Y-112406784D01*
X113877836Y-112435287D01*
X113877833Y-112435289D01*
X113858688Y-112446341D01*
X105061377Y-121243649D01*
X105036319Y-121261854D01*
X105022534Y-121268878D01*
X104965951Y-121278983D01*
X104955999Y-121277805D01*
X104929750Y-121270955D01*
X104809660Y-121221212D01*
X104807622Y-121220281D01*
X104806418Y-121219869D01*
X104603469Y-121179500D01*
X104603467Y-121179500D01*
X104603465Y-121179500D01*
X104396535Y-121179500D01*
X104396532Y-121179500D01*
X104396529Y-121179500D01*
X104193581Y-121219869D01*
X104193579Y-121219869D01*
X104002404Y-121299056D01*
X103830351Y-121414017D01*
X103684017Y-121560351D01*
X103569056Y-121732404D01*
X103489869Y-121923579D01*
X103489869Y-121923581D01*
X103449500Y-122126529D01*
X103449500Y-122333469D01*
X103456512Y-122368719D01*
X103482956Y-122501666D01*
X103489869Y-122536417D01*
X103489869Y-122536419D01*
X103569056Y-122727594D01*
X103663350Y-122868716D01*
X103684024Y-122899657D01*
X103763695Y-122979327D01*
X103830345Y-123045977D01*
X104002402Y-123160941D01*
X104193580Y-123240130D01*
X104396535Y-123280500D01*
X104396536Y-123280500D01*
X104603464Y-123280500D01*
X104603465Y-123280500D01*
X104806420Y-123240130D01*
X104997598Y-123160941D01*
X105169655Y-123045977D01*
X105315977Y-122899655D01*
X105430941Y-122727598D01*
X105503035Y-122553544D01*
X105519212Y-122527143D01*
X105524573Y-122520866D01*
X105576739Y-122488899D01*
X105637736Y-122493698D01*
X105684232Y-122533384D01*
X105684880Y-122534441D01*
X105699500Y-122586219D01*
X105699500Y-123088839D01*
X105694654Y-123119432D01*
X105687107Y-123142659D01*
X105662957Y-123182070D01*
X105061378Y-123783649D01*
X105036320Y-123801854D01*
X105022535Y-123808878D01*
X104965953Y-123818983D01*
X104956000Y-123817805D01*
X104929750Y-123810955D01*
X104806421Y-123759870D01*
X104806415Y-123759868D01*
X104603469Y-123719500D01*
X104603467Y-123719500D01*
X104603465Y-123719500D01*
X104396535Y-123719500D01*
X104396532Y-123719500D01*
X104396529Y-123719500D01*
X104193581Y-123759869D01*
X104193579Y-123759869D01*
X104002404Y-123839056D01*
X103830351Y-123954017D01*
X103684017Y-124100351D01*
X103569056Y-124272404D01*
X103489869Y-124463579D01*
X103489869Y-124463581D01*
X103449500Y-124666529D01*
X103449500Y-124873469D01*
X103462816Y-124940414D01*
X103485302Y-125053460D01*
X103489869Y-125076417D01*
X103489869Y-125076419D01*
X103569056Y-125267594D01*
X103569057Y-125267596D01*
X103569058Y-125267597D01*
X103660550Y-125404525D01*
X103684023Y-125439655D01*
X103830345Y-125585977D01*
X104002402Y-125700941D01*
X104193580Y-125780130D01*
X104396535Y-125820500D01*
X104396536Y-125820500D01*
X104603464Y-125820500D01*
X104603465Y-125820500D01*
X104806420Y-125780130D01*
X104997598Y-125700941D01*
X105169655Y-125585977D01*
X105315977Y-125439655D01*
X105430941Y-125267598D01*
X105510130Y-125076420D01*
X105550500Y-124873465D01*
X105550500Y-124666535D01*
X105510130Y-124463580D01*
X105459800Y-124342075D01*
X105452572Y-124311968D01*
X105451357Y-124296533D01*
X105463675Y-124240396D01*
X105468573Y-124231650D01*
X105484941Y-124210027D01*
X106240460Y-123454511D01*
X106246753Y-123443609D01*
X106246758Y-123443605D01*
X106246757Y-123443605D01*
X106254032Y-123431005D01*
X106265136Y-123411771D01*
X106280020Y-123385990D01*
X106280021Y-123385989D01*
X106300500Y-123309562D01*
X106300500Y-121335423D01*
X106305344Y-121304834D01*
X106307221Y-121299056D01*
X106312891Y-121281603D01*
X106337040Y-121242194D01*
X114129742Y-113449492D01*
X114154794Y-113431291D01*
X114164545Y-113426323D01*
X114224975Y-113416754D01*
X114279491Y-113444533D01*
X114305748Y-113491412D01*
X114307092Y-113497007D01*
X114309830Y-113520130D01*
X114309830Y-113665861D01*
X114350753Y-113818588D01*
X114429810Y-113955520D01*
X114541614Y-114067324D01*
X114678546Y-114146381D01*
X114831273Y-114187304D01*
X114831275Y-114187304D01*
X114989385Y-114187304D01*
X114989387Y-114187304D01*
X115142114Y-114146381D01*
X115279046Y-114067324D01*
X115390850Y-113955520D01*
X115390856Y-113955509D01*
X115391887Y-113954167D01*
X115404183Y-113940864D01*
X115419797Y-113926805D01*
X115465460Y-113903542D01*
X115469608Y-113902660D01*
X115490179Y-113900500D01*
X118268841Y-113900500D01*
X118299432Y-113905345D01*
X118310860Y-113909058D01*
X118322658Y-113912891D01*
X118362071Y-113937042D01*
X119509417Y-115084388D01*
X119527622Y-115109446D01*
X119538709Y-115131205D01*
X119549500Y-115176151D01*
X119549500Y-118468840D01*
X119544654Y-118499433D01*
X119537107Y-118522660D01*
X119512957Y-118562071D01*
X117694486Y-120380543D01*
X117694479Y-120380546D01*
X117609538Y-120465489D01*
X117569981Y-120534003D01*
X117569981Y-120534005D01*
X117569980Y-120534007D01*
X117569978Y-120534011D01*
X117569976Y-120534016D01*
X117569976Y-120534018D01*
X117549500Y-120610432D01*
X117549500Y-121907256D01*
X117544654Y-121937851D01*
X117538788Y-121955903D01*
X117510889Y-121998869D01*
X117507743Y-122001701D01*
X117490990Y-122013876D01*
X117481284Y-122019479D01*
X117481281Y-122019481D01*
X117481276Y-122019487D01*
X117369482Y-122131281D01*
X117369480Y-122131283D01*
X117369480Y-122131284D01*
X117290423Y-122268216D01*
X117249500Y-122420943D01*
X117249500Y-122579057D01*
X117290423Y-122731784D01*
X117369480Y-122868716D01*
X117481284Y-122980520D01*
X117486420Y-122983485D01*
X117510489Y-123002974D01*
X117523191Y-123017080D01*
X117546453Y-123062727D01*
X117547334Y-123066873D01*
X117549500Y-123087465D01*
X117549500Y-125889566D01*
X117569976Y-125965983D01*
X117569978Y-125965987D01*
X117607676Y-126031284D01*
X117607683Y-126031296D01*
X117607690Y-126031308D01*
X117608076Y-126031977D01*
X117609246Y-126034153D01*
X117609433Y-126034404D01*
X117694440Y-126119412D01*
X117712647Y-126144472D01*
X117717610Y-126154213D01*
X117727180Y-126214645D01*
X117699401Y-126269161D01*
X117652522Y-126295418D01*
X117646927Y-126296762D01*
X117623804Y-126299500D01*
X111346844Y-126299500D01*
X111316251Y-126294654D01*
X111293024Y-126287107D01*
X111253613Y-126262957D01*
X110304304Y-125313648D01*
X109946543Y-124955886D01*
X109946539Y-124955883D01*
X109946537Y-124955881D01*
X109923388Y-124940414D01*
X109923387Y-124940414D01*
X109831805Y-124879221D01*
X109704329Y-124826420D01*
X109568996Y-124799500D01*
X109568994Y-124799500D01*
X109431006Y-124799500D01*
X109431003Y-124799500D01*
X109431002Y-124799500D01*
X109305234Y-124824518D01*
X109305231Y-124824518D01*
X109295670Y-124826419D01*
X109168191Y-124879222D01*
X109053463Y-124955880D01*
X108955880Y-125053463D01*
X108879221Y-125168193D01*
X108826418Y-125295671D01*
X108825405Y-125298636D01*
X108824976Y-125298489D01*
X108818937Y-125313648D01*
X108804985Y-125339748D01*
X108787681Y-125363079D01*
X107481349Y-126669414D01*
X107456292Y-126687619D01*
X107434530Y-126698708D01*
X107389583Y-126709500D01*
X105665180Y-126709500D01*
X105634587Y-126704654D01*
X105621901Y-126700532D01*
X105572401Y-126664568D01*
X105572394Y-126664558D01*
X105569400Y-126660436D01*
X105550500Y-126602256D01*
X105550500Y-126440254D01*
X105550497Y-126440237D01*
X105546461Y-126419945D01*
X105546461Y-126419944D01*
X105538867Y-126381771D01*
X105538866Y-126381767D01*
X105498224Y-126320944D01*
X105494552Y-126315448D01*
X105470685Y-126299500D01*
X105428233Y-126271134D01*
X105428234Y-126271134D01*
X105428232Y-126271133D01*
X105428227Y-126271131D01*
X105428025Y-126271063D01*
X105426488Y-126270786D01*
X105369768Y-126259503D01*
X105369758Y-126259501D01*
X105369753Y-126259500D01*
X105369750Y-126259500D01*
X105369748Y-126259500D01*
X105369747Y-126259500D01*
X104001870Y-126259500D01*
X103971277Y-126254654D01*
X103948050Y-126247107D01*
X103908639Y-126222957D01*
X102390582Y-124704900D01*
X102372376Y-124679841D01*
X102361288Y-124658079D01*
X102350500Y-124613137D01*
X102350500Y-119586578D01*
X103450000Y-119586578D01*
X103450000Y-119793418D01*
X103490348Y-119996270D01*
X103490653Y-119997007D01*
X103569500Y-120187358D01*
X103569506Y-120187371D01*
X103601376Y-120235066D01*
X103601377Y-120235067D01*
X103913335Y-119923107D01*
X103967850Y-119895331D01*
X104028282Y-119904902D01*
X104069073Y-119943612D01*
X104099899Y-119997004D01*
X104099901Y-119997007D01*
X104192993Y-120090099D01*
X104192995Y-120090100D01*
X104246383Y-120120924D01*
X104287324Y-120166393D01*
X104293720Y-120227243D01*
X104266887Y-120276663D01*
X103954930Y-120588620D01*
X103954931Y-120588620D01*
X103954931Y-120588621D01*
X104002639Y-120620498D01*
X104193727Y-120699650D01*
X104396581Y-120739999D01*
X104396582Y-120739999D01*
X104396586Y-120740000D01*
X104603409Y-120740000D01*
X104603414Y-120740000D01*
X104603418Y-120739999D01*
X104603419Y-120739998D01*
X104604003Y-120739926D01*
X104605740Y-120739536D01*
X104806272Y-120699650D01*
X104997359Y-120620499D01*
X105045068Y-120588621D01*
X105045067Y-120588620D01*
X105045068Y-120588620D01*
X104733111Y-120276663D01*
X104705334Y-120222147D01*
X104714905Y-120161715D01*
X104753613Y-120120925D01*
X104807007Y-120090099D01*
X104900099Y-119997007D01*
X104930927Y-119943612D01*
X104976392Y-119902675D01*
X105037242Y-119896278D01*
X105086663Y-119923111D01*
X105398620Y-120235067D01*
X105398621Y-120235068D01*
X105430499Y-120187359D01*
X105509650Y-119996272D01*
X105549999Y-119793418D01*
X105550000Y-119793413D01*
X105550000Y-119586586D01*
X105549999Y-119586581D01*
X105509650Y-119383727D01*
X105430498Y-119192639D01*
X105398621Y-119144931D01*
X105398620Y-119144930D01*
X105086663Y-119456887D01*
X105032147Y-119484664D01*
X104971715Y-119475093D01*
X104930924Y-119436383D01*
X104900100Y-119382995D01*
X104900099Y-119382993D01*
X104807007Y-119289901D01*
X104807004Y-119289899D01*
X104753612Y-119259073D01*
X104712671Y-119213604D01*
X104706275Y-119152753D01*
X104733107Y-119103335D01*
X105045067Y-118791377D01*
X105035208Y-118784789D01*
X104997371Y-118759506D01*
X104997369Y-118759505D01*
X104997360Y-118759501D01*
X104806272Y-118680349D01*
X104806270Y-118680348D01*
X104603420Y-118640000D01*
X104603418Y-118640000D01*
X104396581Y-118640000D01*
X104396578Y-118640000D01*
X104193728Y-118680348D01*
X104002638Y-118759500D01*
X103954931Y-118791377D01*
X104266888Y-119103335D01*
X104294665Y-119157851D01*
X104285094Y-119218283D01*
X104246386Y-119259074D01*
X104192993Y-119289901D01*
X104099901Y-119382993D01*
X104069074Y-119436386D01*
X104023603Y-119477326D01*
X103962753Y-119483720D01*
X103913335Y-119456888D01*
X103601377Y-119144931D01*
X103569500Y-119192638D01*
X103490348Y-119383728D01*
X103450000Y-119586578D01*
X102350500Y-119586578D01*
X102350500Y-119201870D01*
X102355344Y-119171281D01*
X102362891Y-119148050D01*
X102387040Y-119108641D01*
X107528721Y-113966960D01*
X107553773Y-113948759D01*
X107575540Y-113937669D01*
X107620481Y-113926881D01*
X109868196Y-113926881D01*
X109898787Y-113931725D01*
X109922013Y-113939272D01*
X109961424Y-113963423D01*
X110054900Y-114056898D01*
X110054903Y-114056901D01*
X110191835Y-114135958D01*
X110344562Y-114176881D01*
X110344564Y-114176881D01*
X110502674Y-114176881D01*
X110502676Y-114176881D01*
X110655403Y-114135958D01*
X110792335Y-114056901D01*
X110904139Y-113945097D01*
X110983196Y-113808165D01*
X111024119Y-113655438D01*
X111024119Y-113497324D01*
X110983196Y-113344597D01*
X110904139Y-113207665D01*
X110792335Y-113095861D01*
X110655403Y-113016804D01*
X110502676Y-112975881D01*
X110502674Y-112975881D01*
X110375489Y-112975881D01*
X110344896Y-112971035D01*
X110321669Y-112963488D01*
X110282258Y-112939338D01*
X109890582Y-112547662D01*
X109872376Y-112522603D01*
X109861288Y-112500841D01*
X109850500Y-112455899D01*
X109850500Y-108896529D01*
X111209500Y-108896529D01*
X111209500Y-109103469D01*
X111235287Y-109233109D01*
X111249868Y-109306415D01*
X111249869Y-109306417D01*
X111249869Y-109306419D01*
X111329056Y-109497594D01*
X111388569Y-109586663D01*
X111444020Y-109669651D01*
X111444023Y-109669655D01*
X111590345Y-109815977D01*
X111762402Y-109930941D01*
X111953580Y-110010130D01*
X112156535Y-110050500D01*
X112156536Y-110050500D01*
X112363464Y-110050500D01*
X112363465Y-110050500D01*
X112566420Y-110010130D01*
X112757598Y-109930941D01*
X112929655Y-109815977D01*
X113075977Y-109669655D01*
X113190941Y-109497598D01*
X113270130Y-109306420D01*
X113310500Y-109103465D01*
X113310500Y-108896535D01*
X113310499Y-108896532D01*
X113310498Y-108896529D01*
X113749500Y-108896529D01*
X113749500Y-109103469D01*
X113775287Y-109233109D01*
X113789868Y-109306415D01*
X113789869Y-109306417D01*
X113789869Y-109306419D01*
X113869056Y-109497594D01*
X113928569Y-109586663D01*
X113984020Y-109669651D01*
X113984023Y-109669655D01*
X114130345Y-109815977D01*
X114302402Y-109930941D01*
X114493580Y-110010130D01*
X114696535Y-110050500D01*
X114696536Y-110050500D01*
X114903464Y-110050500D01*
X114903465Y-110050500D01*
X115106420Y-110010130D01*
X115297598Y-109930941D01*
X115469655Y-109815977D01*
X115615977Y-109669655D01*
X115730941Y-109497598D01*
X115810130Y-109306420D01*
X115850500Y-109103465D01*
X115850500Y-108896578D01*
X116290000Y-108896578D01*
X116290000Y-109103418D01*
X116330348Y-109306270D01*
X116330653Y-109307007D01*
X116409500Y-109497358D01*
X116409506Y-109497371D01*
X116441376Y-109545066D01*
X116441377Y-109545067D01*
X116753335Y-109233107D01*
X116807850Y-109205331D01*
X116868282Y-109214902D01*
X116909073Y-109253612D01*
X116939899Y-109307004D01*
X116939901Y-109307007D01*
X117032993Y-109400099D01*
X117032995Y-109400100D01*
X117086383Y-109430924D01*
X117127324Y-109476393D01*
X117133720Y-109537243D01*
X117106887Y-109586663D01*
X116794930Y-109898620D01*
X116794931Y-109898620D01*
X116794931Y-109898621D01*
X116842639Y-109930498D01*
X117033727Y-110009650D01*
X117236581Y-110049999D01*
X117236582Y-110049999D01*
X117236586Y-110050000D01*
X117443409Y-110050000D01*
X117443414Y-110050000D01*
X117443418Y-110049999D01*
X117443419Y-110049998D01*
X117444003Y-110049926D01*
X117445740Y-110049536D01*
X117646272Y-110009650D01*
X117837359Y-109930499D01*
X117885068Y-109898621D01*
X117885067Y-109898620D01*
X117885068Y-109898620D01*
X117573111Y-109586663D01*
X117545334Y-109532147D01*
X117554905Y-109471715D01*
X117593613Y-109430925D01*
X117647007Y-109400099D01*
X117740099Y-109307007D01*
X117770927Y-109253612D01*
X117816392Y-109212675D01*
X117877242Y-109206278D01*
X117926663Y-109233111D01*
X118238620Y-109545067D01*
X118238621Y-109545068D01*
X118270499Y-109497359D01*
X118349650Y-109306272D01*
X118389999Y-109103418D01*
X118390000Y-109103413D01*
X118390000Y-108896585D01*
X118389999Y-108896582D01*
X118389988Y-108896529D01*
X118829500Y-108896529D01*
X118829500Y-109103469D01*
X118855287Y-109233109D01*
X118869868Y-109306415D01*
X118869869Y-109306417D01*
X118869869Y-109306419D01*
X118949056Y-109497594D01*
X119008569Y-109586663D01*
X119064020Y-109669651D01*
X119064023Y-109669655D01*
X119210345Y-109815977D01*
X119382402Y-109930941D01*
X119573580Y-110010130D01*
X119776535Y-110050500D01*
X119776536Y-110050500D01*
X119983464Y-110050500D01*
X119983465Y-110050500D01*
X120186420Y-110010130D01*
X120377598Y-109930941D01*
X120549655Y-109815977D01*
X120695977Y-109669655D01*
X120810941Y-109497598D01*
X120890130Y-109306420D01*
X120930500Y-109103465D01*
X120930500Y-108896535D01*
X120892460Y-108705298D01*
X120891245Y-108674349D01*
X120893679Y-108653781D01*
X120910776Y-108608811D01*
X120911493Y-108607782D01*
X120922685Y-108594415D01*
X122526523Y-106990579D01*
X122551575Y-106972378D01*
X122573342Y-106961288D01*
X122618283Y-106950500D01*
X136531709Y-106950500D01*
X136562300Y-106955345D01*
X136574637Y-106959353D01*
X136585526Y-106962891D01*
X136624939Y-106987042D01*
X142134416Y-112496519D01*
X142152623Y-112521581D01*
X142164195Y-112544294D01*
X142174136Y-112576302D01*
X142174498Y-112579051D01*
X142174499Y-112579054D01*
X142174499Y-112579056D01*
X142215422Y-112731784D01*
X142215423Y-112731787D01*
X142215746Y-112732501D01*
X142217019Y-112734550D01*
X142223828Y-112746345D01*
X142294473Y-112868705D01*
X142294475Y-112868709D01*
X142294478Y-112868713D01*
X142294480Y-112868716D01*
X142295177Y-112869413D01*
X142296152Y-112870755D01*
X142297577Y-112872493D01*
X142297475Y-112872576D01*
X142313382Y-112894472D01*
X142315944Y-112899500D01*
X142318347Y-112904217D01*
X142327914Y-112964649D01*
X142300133Y-113019164D01*
X142253257Y-113045418D01*
X142247662Y-113046762D01*
X142224539Y-113049500D01*
X138480423Y-113049500D01*
X138449829Y-113044654D01*
X138425584Y-113036776D01*
X138395914Y-113021166D01*
X138393723Y-113019484D01*
X138335482Y-112985859D01*
X138256784Y-112940423D01*
X138104057Y-112899500D01*
X138104055Y-112899500D01*
X137945945Y-112899500D01*
X137945943Y-112899500D01*
X137793216Y-112940423D01*
X137656284Y-113019480D01*
X137544480Y-113131284D01*
X137465423Y-113268216D01*
X137424500Y-113420943D01*
X137424500Y-113579057D01*
X137465423Y-113731784D01*
X137544480Y-113868716D01*
X137656284Y-113980520D01*
X137793216Y-114059577D01*
X137945943Y-114100500D01*
X137945945Y-114100500D01*
X138104055Y-114100500D01*
X138104057Y-114100500D01*
X138256784Y-114059577D01*
X138393716Y-113980520D01*
X138393718Y-113980517D01*
X138398891Y-113977531D01*
X138403426Y-113975068D01*
X138430475Y-113961287D01*
X138475415Y-113950500D01*
X141981709Y-113950500D01*
X142012300Y-113955345D01*
X142024637Y-113959353D01*
X142035526Y-113962891D01*
X142074939Y-113987042D01*
X143359417Y-115271520D01*
X143377624Y-115296582D01*
X143389196Y-115319295D01*
X143399137Y-115351303D01*
X143399499Y-115354052D01*
X143399500Y-115354055D01*
X143399500Y-115354057D01*
X143440423Y-115506784D01*
X143519480Y-115643716D01*
X143631284Y-115755520D01*
X143768216Y-115834577D01*
X143920943Y-115875500D01*
X143920945Y-115875500D01*
X144079055Y-115875500D01*
X144079057Y-115875500D01*
X144231784Y-115834577D01*
X144368716Y-115755520D01*
X144480520Y-115643716D01*
X144559577Y-115506784D01*
X144589956Y-115393400D01*
X144602553Y-115365110D01*
X144608763Y-115355548D01*
X144656313Y-115317048D01*
X144717413Y-115313850D01*
X144719211Y-115314331D01*
X144722126Y-115315113D01*
X144766498Y-115340733D01*
X157359417Y-127933652D01*
X157377622Y-127958710D01*
X157388709Y-127980469D01*
X157399500Y-128025415D01*
X157399500Y-130476110D01*
X157394652Y-130506710D01*
X157392104Y-130514550D01*
X157356137Y-130564047D01*
X157297945Y-130582950D01*
X157239759Y-130564041D01*
X157234529Y-130560241D01*
X157210407Y-130535152D01*
X157140592Y-130430668D01*
X156994332Y-130284408D01*
X156994329Y-130284405D01*
X156861347Y-130195549D01*
X156822373Y-130169507D01*
X156822366Y-130169503D01*
X156699337Y-130118543D01*
X156699104Y-130118446D01*
X156676813Y-130099407D01*
X156450000Y-130054293D01*
X156450000Y-130546211D01*
X156431093Y-130604402D01*
X156381593Y-130640366D01*
X156325378Y-130641838D01*
X156283907Y-130630726D01*
X156262535Y-130625000D01*
X156262534Y-130625000D01*
X156137466Y-130625000D01*
X156137465Y-130625000D01*
X156116092Y-130630726D01*
X156074622Y-130641838D01*
X156013520Y-130638635D01*
X155965971Y-130600129D01*
X155950000Y-130546211D01*
X155950000Y-130054294D01*
X155950000Y-130054293D01*
X155949999Y-130054293D01*
X155949996Y-130054293D01*
X155768729Y-130090348D01*
X155577632Y-130169503D01*
X155577625Y-130169507D01*
X155405670Y-130284405D01*
X155405666Y-130284408D01*
X155259408Y-130430666D01*
X155259405Y-130430670D01*
X155144507Y-130602625D01*
X155144503Y-130602632D01*
X155065350Y-130793723D01*
X155065348Y-130793731D01*
X155054157Y-130850000D01*
X155646212Y-130850000D01*
X155704403Y-130868907D01*
X155740367Y-130918407D01*
X155741838Y-130974620D01*
X155725000Y-131037465D01*
X155725000Y-131162535D01*
X155741838Y-131225379D01*
X155738636Y-131286478D01*
X155700131Y-131334028D01*
X155646212Y-131350000D01*
X155054157Y-131350000D01*
X155065348Y-131406267D01*
X155065350Y-131406275D01*
X155144503Y-131597366D01*
X155144507Y-131597373D01*
X155144508Y-131597374D01*
X155259405Y-131769329D01*
X155405670Y-131915594D01*
X155577625Y-132030491D01*
X155577633Y-132030495D01*
X155577636Y-132030497D01*
X155634160Y-132053910D01*
X155700892Y-132081551D01*
X155723186Y-132100592D01*
X155768728Y-132109650D01*
X155768727Y-132109650D01*
X155950000Y-132145705D01*
X155950000Y-132145704D01*
X155950000Y-131653788D01*
X155968907Y-131595597D01*
X156018407Y-131559633D01*
X156074620Y-131558161D01*
X156137465Y-131575000D01*
X156262533Y-131575000D01*
X156262535Y-131575000D01*
X156325379Y-131558161D01*
X156386478Y-131561364D01*
X156434028Y-131599869D01*
X156450000Y-131653788D01*
X156450000Y-132145702D01*
X156450000Y-132145704D01*
X156557757Y-132124271D01*
X156588703Y-132123057D01*
X156596898Y-132124027D01*
X156652460Y-132149649D01*
X156682351Y-132203036D01*
X156675158Y-132263786D01*
X156672452Y-132269656D01*
X156652549Y-132298213D01*
X156441349Y-132509414D01*
X156416292Y-132527619D01*
X156394530Y-132538708D01*
X156349583Y-132549500D01*
X155420718Y-132549500D01*
X155390306Y-132552352D01*
X155390291Y-132552356D01*
X155390290Y-132552356D01*
X155262114Y-132597207D01*
X155152862Y-132677838D01*
X155152838Y-132677862D01*
X155072207Y-132787114D01*
X155027356Y-132915290D01*
X155027356Y-132915291D01*
X155027352Y-132915306D01*
X155024500Y-132945717D01*
X155024500Y-134254281D01*
X155027352Y-134284692D01*
X155027356Y-134284707D01*
X155027356Y-134284708D01*
X155072207Y-134412884D01*
X155152910Y-134522233D01*
X155153011Y-134522332D01*
X155154738Y-134523544D01*
X155256149Y-134598388D01*
X155258967Y-134600813D01*
X155258972Y-134600816D01*
X155261650Y-134602642D01*
X155262910Y-134603070D01*
X155390301Y-134647646D01*
X155413902Y-134649859D01*
X155417805Y-134650500D01*
X156979273Y-134650500D01*
X157003552Y-134650500D01*
X157004096Y-134650222D01*
X157003814Y-134648931D01*
X157009687Y-134647647D01*
X157009699Y-134647646D01*
X157137882Y-134602793D01*
X157247150Y-134522150D01*
X157327793Y-134412882D01*
X157372646Y-134284699D01*
X157372647Y-134284687D01*
X157373931Y-134278814D01*
X157375500Y-134279156D01*
X157375500Y-133330422D01*
X157380344Y-133299833D01*
X157382127Y-133294345D01*
X157387891Y-133276602D01*
X157412040Y-133237193D01*
X158368713Y-132280521D01*
X158368716Y-132280520D01*
X158480520Y-132168716D01*
X158559577Y-132031784D01*
X158600500Y-131879057D01*
X158600500Y-127645943D01*
X158600500Y-127645940D01*
X158598001Y-127636616D01*
X158597240Y-127633776D01*
X158597236Y-127633766D01*
X158593756Y-127620775D01*
X158577358Y-127559577D01*
X158559577Y-127493216D01*
X158480520Y-127356284D01*
X158368716Y-127244480D01*
X158368713Y-127244478D01*
X143255521Y-112131286D01*
X143255520Y-112131284D01*
X143143716Y-112019480D01*
X143056904Y-111969360D01*
X143056903Y-111969359D01*
X143009538Y-111942013D01*
X143007498Y-111940745D01*
X143006784Y-111940422D01*
X142848313Y-111897959D01*
X142843346Y-111896488D01*
X142814472Y-111887107D01*
X142775059Y-111862956D01*
X141333046Y-110420943D01*
X152899500Y-110420943D01*
X152899500Y-110579057D01*
X152940423Y-110731784D01*
X153019480Y-110868716D01*
X153131284Y-110980520D01*
X153268216Y-111059577D01*
X153420943Y-111100500D01*
X153420945Y-111100500D01*
X153579056Y-111100500D01*
X153579057Y-111100500D01*
X153584786Y-111098964D01*
X153615588Y-111095727D01*
X153634541Y-111096720D01*
X153683271Y-111112550D01*
X153686827Y-111114859D01*
X153702914Y-111127885D01*
X155368383Y-112793354D01*
X155386590Y-112818415D01*
X155395205Y-112835324D01*
X155405859Y-112885436D01*
X155405638Y-112889663D01*
X155402402Y-112910108D01*
X155399500Y-112920943D01*
X155399500Y-113079057D01*
X155440423Y-113231784D01*
X155519480Y-113368716D01*
X155631284Y-113480520D01*
X155768216Y-113559577D01*
X155920943Y-113600500D01*
X155920945Y-113600500D01*
X156079055Y-113600500D01*
X156079057Y-113600500D01*
X156231784Y-113559577D01*
X156368716Y-113480520D01*
X156480520Y-113368716D01*
X156559577Y-113231784D01*
X156600500Y-113079057D01*
X156600500Y-112920943D01*
X156559577Y-112768216D01*
X156480520Y-112631284D01*
X156368716Y-112519480D01*
X156231784Y-112440423D01*
X156079057Y-112399500D01*
X156079055Y-112399500D01*
X155920940Y-112399500D01*
X155915204Y-112401037D01*
X155884404Y-112404272D01*
X155865452Y-112403278D01*
X155816719Y-112387443D01*
X155813171Y-112385139D01*
X155797085Y-112372114D01*
X154131615Y-110706644D01*
X154113411Y-110681587D01*
X154104793Y-110664674D01*
X154094140Y-110614545D01*
X154094363Y-110610306D01*
X154097596Y-110589893D01*
X154099737Y-110581899D01*
X154100392Y-110579720D01*
X154100500Y-110579057D01*
X154100500Y-110420944D01*
X154100500Y-110420943D01*
X154059577Y-110268216D01*
X153980520Y-110131284D01*
X153868716Y-110019480D01*
X153731784Y-109940423D01*
X153579057Y-109899500D01*
X153579055Y-109899500D01*
X153420945Y-109899500D01*
X153420943Y-109899500D01*
X153268216Y-109940423D01*
X153131284Y-110019480D01*
X153019480Y-110131284D01*
X152940423Y-110268216D01*
X152899500Y-110420943D01*
X141333046Y-110420943D01*
X139412103Y-108500000D01*
X138491158Y-107579055D01*
X137317348Y-106405245D01*
X156949500Y-106405245D01*
X156949500Y-108144758D01*
X156957312Y-108184024D01*
X156961133Y-108203231D01*
X156961134Y-108203232D01*
X156961133Y-108203232D01*
X156961134Y-108203233D01*
X157005448Y-108269552D01*
X157071769Y-108313867D01*
X157094000Y-108318289D01*
X157116228Y-108322711D01*
X157116231Y-108322711D01*
X157124159Y-108324288D01*
X157126324Y-108324861D01*
X157128514Y-108325217D01*
X157130081Y-108325500D01*
X157130252Y-108325500D01*
X157130253Y-108325500D01*
X158869747Y-108325500D01*
X158869748Y-108325500D01*
X158928231Y-108313867D01*
X158994552Y-108269552D01*
X159038867Y-108203231D01*
X159050500Y-108144748D01*
X159050500Y-106405252D01*
X159038867Y-106346769D01*
X158994552Y-106280448D01*
X158994548Y-106280445D01*
X158994544Y-106280442D01*
X158928232Y-106236133D01*
X158928227Y-106236131D01*
X158928025Y-106236063D01*
X158926488Y-106235786D01*
X158869768Y-106224503D01*
X158869758Y-106224501D01*
X158869753Y-106224500D01*
X158869750Y-106224500D01*
X158869748Y-106224500D01*
X157130252Y-106224500D01*
X157130251Y-106224500D01*
X157130245Y-106224500D01*
X157071778Y-106236130D01*
X157071763Y-106236135D01*
X157005454Y-106280442D01*
X157005442Y-106280454D01*
X156961135Y-106346763D01*
X156961130Y-106346778D01*
X156949500Y-106405245D01*
X137317348Y-106405245D01*
X137051614Y-106139511D01*
X137051611Y-106139509D01*
X137051609Y-106139507D01*
X136948890Y-106080202D01*
X136948886Y-106080200D01*
X136948883Y-106080199D01*
X136948881Y-106080198D01*
X136877552Y-106061085D01*
X136877518Y-106061077D01*
X136834309Y-106049500D01*
X136834307Y-106049500D01*
X122320687Y-106049500D01*
X122275505Y-106061605D01*
X122275506Y-106061606D01*
X122255945Y-106066847D01*
X122255938Y-106066847D01*
X122230324Y-106073712D01*
X122206112Y-106080201D01*
X122206109Y-106080202D01*
X122103389Y-106139507D01*
X122103388Y-106139507D01*
X122103389Y-106139508D01*
X120290478Y-107952416D01*
X120265418Y-107970622D01*
X120246969Y-107980022D01*
X120200111Y-107990793D01*
X120198870Y-107990769D01*
X120181468Y-107988885D01*
X120125988Y-107977848D01*
X120125988Y-107977849D01*
X119983469Y-107949500D01*
X119983467Y-107949500D01*
X119983465Y-107949500D01*
X119776535Y-107949500D01*
X119776532Y-107949500D01*
X119776529Y-107949500D01*
X119573581Y-107989869D01*
X119573579Y-107989869D01*
X119382404Y-108069056D01*
X119210351Y-108184017D01*
X119064017Y-108330351D01*
X118949056Y-108502404D01*
X118869869Y-108693579D01*
X118869869Y-108693581D01*
X118829500Y-108896529D01*
X118389988Y-108896529D01*
X118349650Y-108693727D01*
X118270498Y-108502639D01*
X118238621Y-108454931D01*
X118238620Y-108454930D01*
X117926663Y-108766887D01*
X117872147Y-108794664D01*
X117811715Y-108785093D01*
X117770924Y-108746383D01*
X117740100Y-108692995D01*
X117740099Y-108692993D01*
X117647007Y-108599901D01*
X117637495Y-108594409D01*
X117593612Y-108569073D01*
X117552671Y-108523604D01*
X117546275Y-108462753D01*
X117573107Y-108413335D01*
X117885067Y-108101377D01*
X117840762Y-108071772D01*
X117837371Y-108069506D01*
X117837369Y-108069505D01*
X117837360Y-108069501D01*
X117682724Y-108005448D01*
X117646270Y-107990348D01*
X117443420Y-107950000D01*
X117443418Y-107950000D01*
X117236581Y-107950000D01*
X117236578Y-107950000D01*
X117033728Y-107990348D01*
X116842638Y-108069500D01*
X116794931Y-108101377D01*
X117106888Y-108413335D01*
X117134665Y-108467851D01*
X117125094Y-108528283D01*
X117086386Y-108569074D01*
X117032993Y-108599901D01*
X116939901Y-108692993D01*
X116909074Y-108746386D01*
X116863603Y-108787326D01*
X116802753Y-108793720D01*
X116753335Y-108766888D01*
X116441377Y-108454931D01*
X116409500Y-108502638D01*
X116330348Y-108693728D01*
X116290000Y-108896578D01*
X115850500Y-108896578D01*
X115850500Y-108896535D01*
X115810130Y-108693580D01*
X115730941Y-108502402D01*
X115615977Y-108330345D01*
X115469655Y-108184023D01*
X115469651Y-108184020D01*
X115389182Y-108130253D01*
X115298260Y-108069501D01*
X115297597Y-108069058D01*
X115297596Y-108069057D01*
X115297594Y-108069056D01*
X115106418Y-107989869D01*
X114903469Y-107949500D01*
X114903467Y-107949500D01*
X114903465Y-107949500D01*
X114696535Y-107949500D01*
X114696532Y-107949500D01*
X114696529Y-107949500D01*
X114493581Y-107989869D01*
X114493579Y-107989869D01*
X114302404Y-108069056D01*
X114130351Y-108184017D01*
X113984017Y-108330351D01*
X113869056Y-108502404D01*
X113789869Y-108693579D01*
X113789869Y-108693581D01*
X113749500Y-108896529D01*
X113310498Y-108896529D01*
X113272461Y-108705299D01*
X113270130Y-108693580D01*
X113190941Y-108502402D01*
X113075977Y-108330345D01*
X112929655Y-108184023D01*
X112929651Y-108184020D01*
X112849182Y-108130253D01*
X112758260Y-108069501D01*
X112757597Y-108069058D01*
X112757596Y-108069057D01*
X112757594Y-108069056D01*
X112566418Y-107989869D01*
X112363469Y-107949500D01*
X112363467Y-107949500D01*
X112363465Y-107949500D01*
X112156535Y-107949500D01*
X112156532Y-107949500D01*
X112156529Y-107949500D01*
X111953581Y-107989869D01*
X111953579Y-107989869D01*
X111762404Y-108069056D01*
X111590351Y-108184017D01*
X111444017Y-108330351D01*
X111329056Y-108502404D01*
X111249869Y-108693579D01*
X111249869Y-108693581D01*
X111209500Y-108896529D01*
X109850500Y-108896529D01*
X109850500Y-108055423D01*
X109855345Y-108024832D01*
X109862892Y-108001603D01*
X109887040Y-107962194D01*
X109980520Y-107868716D01*
X110059577Y-107731784D01*
X110100500Y-107579057D01*
X110100500Y-107420943D01*
X110059577Y-107268216D01*
X109980520Y-107131284D01*
X109868716Y-107019480D01*
X109731784Y-106940423D01*
X109579057Y-106899500D01*
X109579055Y-106899500D01*
X109420945Y-106899500D01*
X109420943Y-106899500D01*
X109268216Y-106940423D01*
X109131284Y-107019480D01*
X109019480Y-107131284D01*
X108940423Y-107268216D01*
X108899500Y-107420943D01*
X108899500Y-107579057D01*
X108940423Y-107731784D01*
X109019480Y-107868716D01*
X109019481Y-107868717D01*
X109019482Y-107868718D01*
X109109418Y-107958655D01*
X109127623Y-107983712D01*
X109138709Y-108005469D01*
X109149500Y-108050415D01*
X109149500Y-112698906D01*
X109162210Y-112746343D01*
X109173382Y-112788041D01*
X109173385Y-112788048D01*
X109173390Y-112788059D01*
X109219531Y-112867975D01*
X109219532Y-112867976D01*
X109397344Y-113045789D01*
X109415547Y-113070842D01*
X109420513Y-113080587D01*
X109430088Y-113141019D01*
X109402313Y-113195537D01*
X109355429Y-113221799D01*
X109349834Y-113223143D01*
X109326711Y-113225881D01*
X107377475Y-113225881D01*
X107288331Y-113249767D01*
X107208407Y-113295911D01*
X101719529Y-118784788D01*
X101678579Y-118855712D01*
X101678579Y-118855715D01*
X101673388Y-118864704D01*
X101673385Y-118864712D01*
X101649500Y-118953857D01*
X100500500Y-118953857D01*
X100500500Y-104631529D01*
X156949500Y-104631529D01*
X156949500Y-104838469D01*
X156989869Y-105041417D01*
X156989869Y-105041419D01*
X157069055Y-105232593D01*
X157069057Y-105232595D01*
X157069058Y-105232597D01*
X157069059Y-105232598D01*
X157184023Y-105404655D01*
X157330345Y-105550977D01*
X157502402Y-105665941D01*
X157693580Y-105745130D01*
X157896535Y-105785500D01*
X157896536Y-105785500D01*
X158103464Y-105785500D01*
X158103465Y-105785500D01*
X158306420Y-105745130D01*
X158497598Y-105665941D01*
X158669655Y-105550977D01*
X158815977Y-105404655D01*
X158930941Y-105232598D01*
X159010130Y-105041420D01*
X159050500Y-104838465D01*
X159050500Y-104631535D01*
X159010130Y-104428580D01*
X158930941Y-104237402D01*
X158815977Y-104065345D01*
X158669655Y-103919023D01*
X158669651Y-103919020D01*
X158554738Y-103842238D01*
X158542232Y-103826375D01*
X158497604Y-103804061D01*
X158306416Y-103724868D01*
X158103469Y-103684500D01*
X158103467Y-103684500D01*
X158103465Y-103684500D01*
X157896535Y-103684500D01*
X157896532Y-103684500D01*
X157896529Y-103684500D01*
X157693581Y-103724869D01*
X157693579Y-103724869D01*
X157502404Y-103804056D01*
X157330351Y-103919017D01*
X157184017Y-104065351D01*
X157069056Y-104237404D01*
X156989869Y-104428579D01*
X156989869Y-104428581D01*
X156949500Y-104631529D01*
X100500500Y-104631529D01*
X100500500Y-97114680D01*
X100505343Y-97084094D01*
X100509465Y-97071405D01*
X100545423Y-97021906D01*
X100546022Y-97021471D01*
X100549563Y-97018900D01*
X100607743Y-97000000D01*
X159384820Y-97000000D01*
X159415408Y-97004843D01*
G37*
%TD.AperFunction*%
%TD*%
M02*
